<?xml version="1.0" encoding="utf-8"?>
<!-- Generator: Adobe Illustrator 22.0.0, SVG Export Plug-In . SVG Version: 6.00 Build 0)  -->
<svg version="1.1" id="Layer_1" xmlns="http://www.w3.org/2000/svg" xmlns:xlink="http://www.w3.org/1999/xlink" x="0px" y="0px"
	 viewBox="0 0 32 32" style="enable-background:new 0 0 32 32;" xml:space="preserve">
<style type="text/css">
	.st0{fill:#232766;}
	.st1{fill:#FFFFFF;}
</style>
<rect x="0" y="0" class="st0" width="32" height="32"/>
<g>
	<path class="st1" d="M10,4.4h4.9c2,0,3.6,0.4,4.8,1.1c0.5,0.4,1,0.8,1.3,1.2c0.3,0.5,0.6,1,0.7,1.5c0.1,0.6,0.2,1,0.3,1.3
		c0,0.3,0.1,0.8,0.1,1.2c0,0.9-0.1,1.5-0.2,2.1c-0.2,0.6-0.5,1.1-0.9,1.5c-0.4,0.4-0.8,0.8-1.4,1.1c0.7,0.3,1.3,0.8,1.7,1.5
		c0.3,0.5,0.5,1,0.6,1.4c0.1,0.4,0.1,0.9,0.1,1.6v1.8c0,2.2-0.7,3.8-2.2,4.8c-1,0.7-2.5,1.1-4.3,1.1H10V4.4L10,4.4z M13.6,7.4V14
		h1.7c1.1,0,1.8-0.3,2.3-0.9c0.5-0.5,0.7-1.2,0.7-2V9.7c0-0.6-0.2-1.1-0.7-1.6c-0.6-0.5-1.3-0.8-2.4-0.8H13.6L13.6,7.4z M13.6,17
		v7.6h1.6c1.1,0,1.9-0.4,2.5-1c0.4-0.5,0.7-1.3,0.7-2.3v-1.1c0-0.6-0.1-1.1-0.2-1.5s-0.4-0.7-0.8-1c-0.5-0.4-1.2-0.6-1.9-0.6
		L13.6,17L13.6,17z"/>
</g>
</svg>
