<svg xmlns="http://www.w3.org/2000/svg" viewBox="0 0 512 200" enable-background="new 0 0 512 200"><style type="text/css">.st0{fill:#FFFFFF;} .st1{fill:#D1AC84;}</style><path d="M-.6 18h19.4c8 0 14.4 1.5 19 4.5 2.1 1.4 3.8 3 5.2 4.9 1.3 1.9 2.3 3.9 2.8 6.1.5 2.2.8 4 1 5.3.1 1.3.2 3 .2 4.9 0 3.4-.3 6.1-.9 8.3-.6 2.2-1.8 4.2-3.5 6.1-1.5 1.7-3.3 3.1-5.4 4.3 2.9 1.2 5.2 3.2 6.9 5.8 1.3 2.1 2.1 3.9 2.4 5.4.3 1.5.5 3.6.5 6.2v7c0 8.9-2.9 15.3-8.7 19.3-4.1 2.9-9.8 4.4-17.1 4.4H-.6V18zm14.4 12v26.4h6.9c4.2 0 7.2-1.1 9.2-3.4 1.8-1.9 2.7-4.6 2.7-8v-5.7c0-2.4-.9-4.5-2.7-6.3-2.2-2-5.3-3-9.4-3h-6.7zm0 38.3v30.4h6.5c4.3 0 7.6-1.4 9.8-4.1 1.7-2.1 2.6-5.3 2.6-9.3v-4.4c0-2.4-.3-4.5-.8-6s-1.6-2.9-3-4.1c-2.1-1.6-4.6-2.4-7.6-2.4h-7.5v-.1zM63.7 86.3V42.4c0-4.3.5-8 1.4-11.1.9-3 2.9-5.9 6-8.6 4.6-4 10.5-6 17.7-6s13.1 2 17.7 6c3.1 2.7 5.1 5.5 6 8.6.9 3.1 1.4 6.8 1.4 11.1v43.9c0 4.3-.5 8-1.4 11.1-.9 3.1-3 5.9-6 8.6-4.6 4-10.5 6-17.7 6s-13.1-2-17.7-6c-3.1-2.7-5.1-5.5-6-8.6-1-3-1.4-6.7-1.4-11.1zm35.9 2V40.4c0-3.5-1-6.2-3-8.1-1.9-1.8-4.5-2.6-7.8-2.6s-5.9.9-7.8 2.6c-2 1.9-3 4.5-3 8.1v47.9c0 3.5 1 6.2 3 8.1 1.9 1.8 4.5 2.6 7.8 2.6s5.9-.9 7.8-2.6c2-1.9 3-4.6 3-8.1zM130.6 18h14.5l24 58.3V18h14.3v92.6h-14.3l-24-58.1v58.1h-14.5V18zM283.6 110.6h-14.3l-4.8-19.8h-18.4l-4.8 19.8H227L249 18h12.6l22 92.6zm-20.8-31.5L255 43.9l-7.5 35.2h15.3zM295.8 110.6V18h21.4c2.7 0 4.9.1 6.7.2 1.8.2 4 .7 6.6 1.7 2.6 1 4.8 2.4 6.8 4.2 2.9 2.8 4.9 5.9 5.8 9.4 1 3.5 1.4 7.4 1.4 11.7v2.6c0 8.2-2 14.5-6.2 18.8-4.7 4.8-11.2 7.3-19.8 7.3H310v36.6h-14.2v.1zM310.2 30v32.1h7.7c4.2 0 7.4-1.1 9.6-3.4.3-.4.6-.7.9-1 .3-.3.5-.7.7-1.1.2-.4.4-.7.5-1 .1-.3.2-.6.3-1.1.1-.5.2-.8.2-1 0-.2.1-.6.1-1.1 0-.6.1-.9.1-1 0-.1 0-.5 0-1.1 0-.6 0-1 0-1.1V43c0-1.2 0-2.1-.1-2.7 0-.6-.2-1.4-.4-2.6-.2-1.1-.6-2.1-1.1-3-.6-.9-1.3-1.7-2.3-2.4-1-.8-2.3-1.3-3.7-1.7-1.4-.4-2.6-.6-3.4-.6-.8 0-2.2-.1-4.1-.1h-5v.1zM395 110.6h-14.3l-4.8-19.8h-18.4l-4.8 19.8h-14.4L360.4 18H373l22 92.6zm-20.8-31.5l-7.7-35.2-7.5 35.2h15.2zM407.2 18H426c.2 0 .6 0 1 0 2.5 0 4.5 0 6.1.1 1.5.1 3.5.3 5.9.7 2.4.4 4.6 1.2 6.6 2.2 2 1.1 3.7 2.5 5.2 4.2 3.5 4 5.3 9.3 5.3 16.1v7c0 2.9-.5 5.6-1.5 8.3s-2.3 4.8-3.8 6.4c-2 2-4.6 3.6-7.6 4.7l15.8 42.8h-15l-13.9-39.9h-8.5v39.9h-14.4V18zm14.4 12v28.8h8.2c3.6 0 6.6-1 8.9-3 1.3-1.2 2.1-2.3 2.5-3.5.4-1.2.5-2.8.5-4.8v-6.6c0-3.6-1.1-6.4-3.3-8.5-.3-.3-.6-.5-1-.8-.3-.2-.7-.4-1.1-.6-.4-.2-.7-.3-1-.5-.3-.1-.6-.2-1.1-.3-.5-.1-.8-.1-1-.2-.2 0-.6-.1-1.1-.1-.5 0-.8 0-1 0-.2 0-.5 0-1.1 0-.6 0-.9 0-1 0h-7.4v.1zM461.3 18h50.1v12.6h-17.8v80h-14.5v-80h-17.8V18z" class="st0"/><path d="M24.4 140.9c3.1 0 6 .7 8.6 2.2 2.6 1.5 4.7 3.5 6.3 6 1.6 2.5 2.3 5.2 2.3 8.1 0 3-.8 5.7-2.3 8.2-1.5 2.5-3.6 4.5-6.2 6s-5.4 2.2-8.4 2.2-5.8-.7-8.5-2.2c-2.6-1.4-4.7-3.4-6.2-5.9-1.5-2.5-2.3-5.2-2.3-8.1 0-2.9.8-5.7 2.3-8.2 1.5-2.6 3.5-4.6 6.1-6.1 2.6-1.5 5.4-2.2 8.3-2.2zm.3 4c-2.4.1-4.5.7-6.5 1.8-1.9 1.1-3.4 2.6-4.5 4.5s-1.6 4-1.6 6.2.6 4.3 1.7 6.1c1.1 1.9 2.7 3.4 4.6 4.5s4.1 1.6 6.4 1.6c2.3 0 4.4-.6 6.3-1.7 1.9-1.1 3.4-2.7 4.5-4.6 1.1-1.9 1.6-4.1 1.6-6.4 0-2.1-.6-4.1-1.7-6-1.1-1.9-2.6-3.4-4.5-4.5s-3.9-1.7-6.1-1.7h-.2v.2zM66.4 173v-27.6h-7.6v-3.8h19.7v3.8h-7.7V173h-4.4zM122.4 173H97.8v7.3h-3.9v-11.1H97l11.2-27.6h3.6l11.3 27.6h3.2v11.1h-4V173h.1zm-3.9-3.8l-8.3-21.2-.1-1-.1 1-8.3 21.2h16.8zM144.2 173v-31.4l4.4-.1v11.9h5.3c3.5 0 6.1.3 7.7 1 1.1.4 2 1.1 2.8 1.9.8.8 1.4 1.8 1.8 3 .4 1.2.6 2.4.6 3.8 0 3-.9 5.3-2.6 7-1.1 1-2.3 1.7-3.8 2.1-1.5.4-3.6.6-6.4.6h-9.8v.2zm27.1 0v-31.4h4.4V173h-4.4zm-22.7-15.8v12h5c1 0 1.9-.1 2.8-.1.8-.1 1.6-.2 2.3-.4 1.2-.4 2.1-1 2.7-2 .6-.9.9-2.1.9-3.5 0-1.7-.4-3.1-1.3-4-.5-.6-1.3-1.1-2.3-1.5-.9-.3-2.6-.4-5.1-.4h-5v-.1zM193.8 173l11-16-11-15.5h5.1l8.6 12.2 8.7-12.2h5.1L210.2 157l11.1 16h-5.1l-8.7-12.6-8.6 12.6h-5.1zM278.7 141.5h4.7L264.6 184H260l5.1-12-12.5-30.5h4.7l10.4 25.1 11-25.1zM317.5 173v-31.4h6.8l10.8 24.4.4 1.5.4-1.6 10.3-24.3h6.7V173h-4.4v-27.3L336.6 173h-2.8l-11.9-27.3V173h-4.4zM389.2 140.9c3.1 0 6 .7 8.6 2.2 2.6 1.5 4.7 3.5 6.3 6 1.6 2.5 2.3 5.2 2.3 8.1 0 3-.8 5.7-2.3 8.2-1.5 2.5-3.6 4.5-6.2 6s-5.4 2.2-8.4 2.2-5.8-.7-8.5-2.2c-2.6-1.4-4.7-3.4-6.2-5.9-1.5-2.5-2.3-5.2-2.3-8.1 0-2.9.8-5.7 2.3-8.2 1.5-2.6 3.5-4.6 6.1-6.1 2.5-1.5 5.3-2.2 8.3-2.2zm.3 4c-2.4.1-4.5.7-6.5 1.8-1.9 1.1-3.4 2.6-4.5 4.5s-1.6 4-1.6 6.2.6 4.3 1.7 6.1c1.2 1.9 2.7 3.4 4.6 4.5 1.9 1.1 4.1 1.6 6.4 1.6 2.3 0 4.4-.6 6.3-1.7 1.9-1.1 3.4-2.7 4.5-4.6 1.1-1.9 1.6-4.1 1.6-6.4 0-2.1-.6-4.1-1.7-6-1.1-1.9-2.6-3.4-4.5-4.5s-3.9-1.7-6.1-1.7h-.2v.2zM426.4 141.5h4.1v5.5c.9-1.3 1.8-2.2 2.5-2.7 3-2.3 6.6-3.5 10.6-3.5 2.5 0 4.9.5 7.2 1.6s4.3 2.6 6.1 4.5c2.6 2.8 3.9 6.3 3.9 10.4 0 3-.8 5.7-2.3 8.2-1.6 2.5-3.7 4.5-6.4 5.9-2.7 1.5-5.6 2.2-8.7 2.2-4.1 0-7.5-1.2-10.1-3.6-.8-.6-1.6-1.7-2.3-3v17h-4.4v-42.5h-.2zm16.9 28.1c1.9-.1 3.7-.4 5.2-1 1.6-.6 3-1.5 4.2-2.6 1.2-1.1 2.1-2.4 2.7-3.9.6-1.5.9-3.1.9-4.8 0-2.2-.6-4.3-1.7-6.2-1.2-1.9-2.7-3.4-4.7-4.5s-4.2-1.7-6.5-1.7c-2.4 0-4.6.5-6.6 1.6s-3.5 2.6-4.7 4.5c-1.1 1.9-1.7 4-1.7 6.3s.6 4.3 1.7 6.2c1.1 1.9 2.6 3.4 4.5 4.5s4 1.7 6.3 1.7h.4v-.1zM478 173l12.6-13.4c-2-.1-3.7-.4-5.2-1.2-1.5-.7-2.6-1.7-3.3-3-.8-1.3-1.1-2.8-1.1-4.6 0-2.6.9-4.8 2.6-6.4 1.1-1 2.4-1.7 4-2.2 1.5-.4 3.6-.6 6.3-.6h9.2V173h-4.4v-28h-3.8c-2.5 0-4.5.2-5.9.5-1.1.3-2 .9-2.7 1.9-.7 1-1 2.2-1 3.5 0 2.3 1 4 2.9 5.1.9.5 1.9.9 2.9 1.1 1 .2 2.6.3 4.6.3h2.1l-14 15.6H478z" class="st1"/></svg>