<svg xmlns="http://www.w3.org/2000/svg" viewBox="0 0 512 512" enable-background="new 0 0 512 512"><circle cx="262.5" cy="185.5" r="109.5" fill="#fff"/><path fill="#F0BD0F" d="M256 0C152.05 0 67.5 84.56 67.5 188.5c0 27.1 5.55 53 16.48 76.94 47.13 103.12 137.5 212 164.07 242.9 2 2.33 4.9 3.66 7.95 3.66s5.96-1.33 7.95-3.65c26.57-30.9 116.93-139.77 164.07-242.9 10.94-23.96 16.48-49.84 16.48-76.95C444.5 84.56 359.93 0 256 0zm0 286.4c-54 0-97.92-43.92-97.92-97.9s43.93-97.92 97.9-97.92c54 0 97.93 43.93 97.93 97.9S310 286.42 256 286.42z"/></svg>