<svg xmlns="http://www.w3.org/2000/svg"><symbol id="sprite-arrow_down" viewBox="0 0 1024 1024"><title/><path d="M494.328 792.859L7.199 312.129C2.4 307.33 0 301.131 0 294.732c0-6.199 2.4-12.598 7.199-17.397l46.793-46.193c4.599-4.599 10.998-7.199 17.597-7.199s12.798 2.6 17.597 7.199l422.738 417.139 422.738-417.139c4.599-4.599 10.998-7.199 17.597-7.199s12.998 2.6 17.597 7.199l46.793 46.193c9.799 9.599 9.799 24.996 0 34.595L529.52 792.86c-9.599 9.599-25.396 9.599-35.195 0z"/></symbol><symbol id="sprite-arrow_left" viewBox="0 0 1024 1024"><title/><path d="M230 494.4L710.8 7.2C715.6 2.4 722 0 728.2 0c6.4 0 12.6 2.4 17.4 7.2L791.8 54c4.6 4.6 7.2 11 7.2 17.6s-2.6 13-7.2 17.6L374.6 512l417 422.8c4.6 4.8 7.2 11 7.2 17.6s-2.6 13-7.2 17.6l-46.2 46.8c-9.4 9.8-25 9.8-34.6 0L230.2 529.6c-9.6-9.8-9.6-25.4-.2-35.2z"/></symbol><symbol id="sprite-arrow_right" viewBox="0 0 1024 1024"><title/><path d="M791.8 529.6l-480.6 487.2c-9.6 9.8-25.2 9.8-34.6 0L230.4 970c-4.6-4.6-7.2-11-7.2-17.6s2.6-12.8 7.2-17.6l417-422.8L230.2 89.2c-4.6-4.6-7.2-11-7.2-17.6s2.6-13 7.2-17.6l46.2-46.8c4.8-4.8 11-7.2 17.4-7.2 6.2 0 12.6 2.4 17.4 7.2L792 494.4c9.4 9.8 9.4 25.4-.2 35.2z"/></symbol><symbol id="sprite-arrow_top" viewBox="0 0 1024 1024"><title/><path d="M528.6 231.2L1015.8 712c9.8 9.6 9.8 25.2 0 34.6L969 792.8c-4.6 4.6-11 7.2-17.6 7.2s-12.8-2.6-17.6-7.2L511 375.6 88.2 792.8c-4.6 4.6-11 7.2-17.6 7.2s-13-2.6-17.6-7.2L6.2 746.6c-4.8-4.8-7.2-11-7.2-17.4 0-6.2 2.4-12.6 7.2-17.4L493.4 231c9.8-9.4 25.6-9.4 35.2.2z"/></symbol><symbol id="sprite-beach" viewBox="0 0 1024 1024"><title/><path d="M749 402.8c37.4-21.6 83.8-21.6 121.2 0l83.8 48 .4-.6c7.4 6 16.8 9.6 27 9.6 23.6 0 42.6-19 42.6-42.6 0-179-147.2-327-335.8-346.6v-28c0-23.6-19-42.6-42.6-42.6S603 19 603 42.6v28C414.2 90.2 267.2 238 267.2 417.2c0 23.6 19 42.6 42.6 42.6 10.4 0 20-3.8 27.4-10l83.2-47.6c37.4-21.6 83.8-21.6 121.4 0l.8.4c19 10.8 39.6 18.6 60.4 23v322.8H303l-231.6-211C54 521.6 27 522.8 11.2 540.2s-14.6 44.4 2.8 60.2l243.8 222.2c8 7.2 18.2 11 28.8 11h106.8l-83.4 124c-13.2 19.6-8 46 11.4 59.2 19.6 13.2 46 8 59.2-11.4l115.6-171.6h107v147.8c0 23.6 19 42.6 42.6 42.6s42.6-19 42.6-42.6V833.8h87.8l115.6 171.6c13.2 19.4 39.8 24.6 59.2 11.4 19.6-13.2 24.6-39.8 11.4-59.2l-83.4-124h86.6c23.6 0 42.6-19 42.6-42.6s-19-42.6-42.6-42.6H688.4V425.6c21-4.2 41.6-12 60.6-22.8zm-164.8-75.2c-63.8-36.6-142.8-36.6-206.4 0l-10 5.8c38.8-104.6 148.8-180 278-180 129.6 0 240 76 278.4 181l-11-6.4c-63.8-36.6-142.8-36.6-206.6 0-37.4 21.6-83.8 21.6-121.4 0l-1-.4z"/></symbol><symbol id="sprite-bonum" viewBox="0 0 1024 1024"><title/><path d="M451.6 513.4c0 43.6-32.4 75-77.4 75-44.8 0-77.6-31.4-77.6-75s32.8-75 77.6-75 77.4 31.4 77.4 75zm-124 0c0 28.6 19.4 48.8 46.4 48.8 27.2 0 46.6-20.2 46.6-48.8 0-28.2-19.4-48.8-46.6-48.8-27 0-46.4 20.6-46.4 48.8zm-137.2-75c-44.8 0-77.6 31.4-77.6 75 0 17 5 32 13.8 44.2H15.2c-8.6 0-15.4 7-15.4 15.4v15.4h190.8c44.8 0 77.4-31.4 77.4-75-.2-43.6-32.6-75-77.6-75zm-.2 123.8c-26.8 0-46.4-20.2-46.4-48.8 0-28.2 19.4-48.8 46.4-48.8 27.2 0 46.6 20.6 46.6 48.8 0 28.6-19.4 48.8-46.6 48.8zM615.4 573v-70.8c0-38-27.6-63.8-68-63.8-40 0-67.4 25.8-67.4 63.8V573c0 8.6 7 15.4 15.4 15.4h15.4v-86.2c0-23 14.4-38.4 36.6-38.4S584 479 584 502.2V573c0 8.6 7 15.4 15.4 15.4h15.4V573h.6zm163.8-122.2v-12.4H764c-8.6 0-15.4 7-15.4 15.4v71c0 23-14.8 38-37 38s-36.6-15-36.6-38v-86.4h-15.2c-8.6 0-15.4 6.8-15.4 15.4V525c0 37.8 27.4 63.4 67.6 63.4 40 0 67.4-25.8 67.4-63.4v-74.2h-.2zm187.4-12.4c-23.4 0-41.8 10.4-50.8 27.8-9-17.4-27.4-27.8-50.8-27.8-34.6 0-57 23-57 58v76.4c0 8.6 7 15.4 15.4 15.4h15.4v-92.6c0-19.4 12-32.6 30.6-32.6s31 13.2 31 32.6V573c0 8.6 7 15.4 15.4 15.4H931v-92.8c0-19.4 12.4-32.6 31-32.6s30.6 13.2 30.6 32.6V573c0 8.6 7 15.4 15.4 15.4h15.4v-92c.2-35-22.4-58-56.8-58z"/></symbol><symbol id="sprite-booking" viewBox="0 0 512 512"><title>booking</title><path fill="#AFC1E0" d="M230.4 269c-9.1-.1-18.3 0-27.5 0-10.5 0-15.9 5.2-16 15.8-.1 7.7 0 15.4 0 23.1 0 8.1.2 16.1-.1 24.3-.1 3.5 1 4.2 4.3 4.2 13.2-.2 26.4.1 39.6-.1 19.3-.3 31.2-13.6 31.2-34.3-.1-19.4-12.8-32.8-31.5-33z"/><path fill="#fff" d="M274.8 247.2c2.7-2.5 4.8-4.2 6.7-6 24.8-22 27.6-62.7 5.9-87.6-13.5-15.4-31.4-22.1-51.2-23.5-24.4-1.7-48.9-.7-73.3-.5-13.7.1-24.4 12-24.4 26.2 0 72.6 0 145.2-.1 217.8 0 4.3 1.3 5.2 5.3 5.2 28.4-.1 56.7 0 85-.1 9.6-.1 19.1-1.4 28.3-3.9 51.1-14 61.7-58.3 51.1-91.6-5.3-16.7-16.6-28.4-33.3-36zm-87.9-41.7v-17.6c0-12 5.1-17.2 17-17.3h19.8c18 .1 28.7 10.2 29.3 27.9.7 17.9-10 30.6-27.2 31.5-11.9.6-23.9.1-35.8.2-3 0-3.1-1.5-3.1-3.8v-20.9zm43.8 130.8c-13.2.2-26.4-.1-39.6.1-3.3 0-4.4-.7-4.3-4.2.3-8.2.1-16.2.1-24.3 0-7.7-.1-15.4 0-23.1.1-10.6 5.5-15.8 16-15.8 9.2 0 18.4-.1 27.5 0 18.7.2 31.4 13.6 31.5 33 0 20.7-11.9 34-31.2 34.3z"/><path fill="#AFC1E0" d="M190 230.2c11.9-.1 23.9.4 35.8-.2 17.2-.9 27.9-13.6 27.2-31.5-.6-17.7-11.3-27.8-29.3-27.9h-19.8c-11.9.1-17 5.3-17 17.3v38.5c0 2.3.1 3.8 3.1 3.8zM420.7 1.8H90.2C40.3 1.8-.6 41.3-.6 91.6v419.2h421.3c50 0 90.8-41.1 90.8-91.4V91.6c0-50.3-40.9-89.8-90.8-89.8zM257 374.8c-9.2 2.5-18.7 3.8-28.3 3.9-28.3.1-56.6 0-85 .1-4 0-5.3-.9-5.3-5.2.1-72.6.1-145.2.1-217.8 0-14.2 10.7-26.1 24.4-26.2 24.4-.2 48.9-1.2 73.3.5 19.8 1.4 37.7 8.1 51.2 23.5 21.7 24.9 18.9 65.6-5.9 87.6-1.9 1.8-4 3.5-6.7 6 16.7 7.6 28 19.3 33.3 36 10.6 33.3 0 77.6-51.1 91.6zm109.6 7c-16.9 0-30.6-13.7-30.6-30.6 0-16.9 13.7-30.6 30.6-30.6 16.9 0 30.6 13.7 30.6 30.6 0 16.9-13.7 30.6-30.6 30.6z"/><ellipse cx="366.6" cy="351.2" fill="#fff" transform="rotate(-13.34 365.833 351.128)" rx="30.6" ry="30.6"/></symbol><symbol id="sprite-bookingcom" viewBox="0 0 500 85"><title>bookingcom</title><style>.st0{fill:#1e3e79}.st1{fill:#00adef}</style><path d="M204.5 2.7c4.1-1.3 8.9 1.6 9.5 5.9.8 4.1-2.4 8.4-6.6 8.7-3.9.5-7.8-2.5-8.2-6.4-.6-3.6 1.8-7.3 5.3-8.2zm-49.3 1.6h7.3c1.6 0 3.3.4 4.4 1.6 1.2 1.3 1.4 3.2 1.4 4.9v25.5c1.7-.1 4.1.3 5.1-1.4 3-4.5 5.9-9.1 8.9-13.6H197c-3.9 5.8-7.9 11.6-11.8 17.4-.7 1.1-1.6 2.1-2.5 3.1 1.8 1.8 2.7 4.1 3.9 6.3 3.1 6.2 6.9 12 10.5 17.9-3.9 0-7.8.1-11.7-.1-2.3 0-4.4-1.3-5.5-3.3-2.6-4.6-5-9.4-7.6-14-.8-1.4-2.7-1-4-1.1v18.6h-13.1V4.3zm78.3 22.1c2.9-3.3 7-5.5 11.4-5.9 4.7-.4 9.8.2 13.4 3.4 3.3 2.9 4.6 7.3 4.9 11.5.2 10.2-.2 20.4.2 30.6-2.6 0-5.1.1-7.7-.1-1.8-.1-3.6-1-4.5-2.6-1.1-1.9-.9-4.2-.9-6.4V38.7c-.1-2.3-.6-5.2-3.2-6-3.4-.9-7.2.1-9.7 2.6-2.5 2.4-3.5 6-3.6 9.4v21.4h-13V21.5c3.1.2 6.4-.5 9.4.6 1.9.6 2.9 2.5 3.3 4.3z" class="st0"/><path d="M340.1 27.5c6.3-6.3 16.2-8.3 24.7-6 3.3.9 6.7 2.4 8.6 5.5 1.8 3 .9 6.7 1.1 10-2.6-.1-5.1.1-7.7-.1-1.8-.2-3-1.7-3.6-3.3-.4-1.2-1.8-1.6-2.9-2-4.6-1.1-9.8.9-12.3 4.9-2.4 3.8-2.7 9-.8 13.1 1.9 4.1 6.3 6.4 10.7 6.5 5.3.3 10.1-2.6 13.7-6.3 1.8 3 3.6 5.9 5.4 8.9-8.8 10.2-26.3 11.4-36.2 2.2-9.4-8.5-9.6-24.7-.7-33.4zm101.5-.5c2.7-3.2 6.4-5.7 10.6-6.3 4.1-.6 8.7.1 11.8 2.9 1.5 1.2 2.4 2.9 3.4 4.5 3-4.2 7.8-7.1 13-7.5 4.6-.4 9.8.6 12.9 4.3 3 3.6 3.6 8.4 3.7 12.9V66c-3.2-.2-6.7.5-9.7-.8-2.4-1.1-2.8-4-2.7-6.3V38.3c-.1-2.1-.4-4.9-2.7-5.9-2.9-1.2-6.2 0-8.4 2.1-2.8 2.8-4 6.8-4.2 10.7V66c-4.2.1-8.3 0-12.5 0V39.7c0-2.2-.2-4.6-1.8-6.3-1.5-1.7-4.1-1.8-6.2-1.2-2.8 1-4.7 3.7-5.8 6.4-1.3 3.1-1.6 6.6-1.6 10V66h-12.2V21.5c3.2.2 6.6-.6 9.6 1 1.8.9 2.3 2.8 2.8 4.5z" class="st1"/><path d="M200.6 21.4c3.2.2 6.5-.4 9.5.6 2.3.8 3.4 3.3 3.4 5.6v38.5h-12.8c.1-14.9-.1-29.8-.1-44.7zM71.9 21c7.4-1.4 15.6.2 21.3 5.3 9.3 8.2 9.9 23.9 1.6 33-9 9.9-26.8 9.9-35.6-.2-8.5-9.5-7.3-26.3 3.2-34 2.7-2.1 6-3.5 9.5-4.1zm2 10.8c-2.7.8-5 2.8-6.3 5.3-2.8 5.7-1.7 13.9 4.1 17.3 4.5 2.6 11.1 1.4 14-3.1 3.1-4.9 2.9-11.9-.8-16.4-2.6-3.1-7.1-4.2-11-3.1zM121.8 21c6.5-1.3 13.6-.3 19.2 3.4 4.7 3 8 8 9.2 13.4 1.6 7.3.2 15.4-4.9 21.1-8.8 10.2-26.6 10.4-35.7.5-8.1-8.8-7.9-23.9.6-32.3 3.2-3.1 7.3-5.2 11.6-6.1zm2.4 10.8c-3.7 1-6.5 4.3-7.3 7.9-1.3 5.2 0 11.6 4.8 14.6 3.9 2.4 9.3 1.9 12.7-1.2 2.8-2.6 3.8-6.6 3.7-10.3-.1-3.5-1.6-7.1-4.4-9.3-2.7-2-6.3-2.5-9.5-1.7z" class="st0"/><path d="M396.6 20.9c7.4-1.3 15.5.4 21.1 5.6 9.1 8.3 9.7 23.9 1.4 32.9-9 9.8-26.5 9.8-35.4-.1-8.1-8.9-7.7-24.3 1.1-32.6 3.2-3 7.4-5 11.8-5.8zm2 10.8c-2.8.7-5.2 2.7-6.5 5.2-2.6 5.1-2.1 12.1 2.2 16.2 3.9 3.7 10.9 3.5 14.6-.4 2.4-2.5 3.4-6.1 3.3-9.5 0-3.8-1.6-7.8-4.8-10-2.5-1.7-5.8-2.2-8.8-1.5z" class="st1"/><path d="M279.7 21.8c6.6-2.6 14.9-2.1 20.4 2.7.8-1.5 2.1-2.8 3.8-3.1 2.6-.4 5.2-.1 7.8-.2v41.1c0 5-1.5 10.1-5 13.9-4.5 4.9-11.3 6.9-17.8 7.1-6.1.1-12.2-1.3-17.5-4.3 1-2.5 1.8-5.1 3.1-7.5.6-1.2 2.1-1.9 3.5-1.6 2.2.4 4.2 1.3 6.4 1.6 3.8.6 8.2.5 11.4-1.9 2.4-1.9 3.2-5.1 3-8-4.1 3.4-9.8 4-14.9 3.1-5.1-.9-9.8-4.1-12.5-8.5-3.7-5.9-4.4-13.2-3-19.9 1.2-6.2 5.2-12.1 11.3-14.5zm6.4 10.5c-2.9 1.1-4.5 4.1-5 7-.7 3.9-.2 8.2 2.2 11.4 3.1 4.2 10.4 4.4 13.6.1 2.1-3 2.2-6.9 2-10.5-.3-3-1.5-6.3-4.3-7.7-2.7-1.2-5.8-1.3-8.5-.3zM7 10.9c-.2-3.5 3-6.6 6.4-6.5h15.8c5.2.1 10.7 1.6 14.4 5.4 5.7 5.8 5.3 16.1-.5 21.7L41 33.3c3 1.5 5.8 3.7 7.3 6.7 2.7 5.5 2.4 12.5-1.1 17.6-3.8 5.6-10.8 8-17.4 8.1H7.1C7 47.5 7 29.2 7 10.9zm13.2 4.6c-1 .9-1.1 2.4-1.2 3.7v9.9h9.7c1.9 0 3.9-.9 5.1-2.4 2.3-3.2 2.2-8.4-1.1-10.9-2.3-1.7-5.3-1.2-7.9-1.3-1.6.1-3.4-.2-4.6 1zm.3 23.9c-1.3.8-1.5 2.4-1.5 3.8v12.1h11.2c2.6-.1 5.2-1.4 6.4-3.7 1.8-3.5 1.5-8.4-1.6-11-2.5-2.1-6.1-1.9-9.2-1.9-1.8.1-3.7-.3-5.3.7z" class="st0"/><path d="M322.1 51.9c4.3-1.3 9.2 2.1 9.5 6.6.4 3.9-2.7 7.8-6.7 8.1-3.9.5-7.9-2.6-8.2-6.6-.6-3.6 1.9-7.3 5.4-8.1z" class="st1"/></symbol><symbol id="sprite-bus" viewBox="0 0 1024 1024"><title/><path d="M647.4 478l58.2 58.2c30.8 30.8 72 48 115.6 48H984c22 0 40-18 40-40V532c0-38.2-7.2-75.4-21.6-110.8l-95-233.4C882.8 127.2 824.6 88 759.2 88H160c-42.8 0-82.8 16.6-113.2 46.8C16.8 165.2.2 205.4.2 248v446c0 87.2 70 158.2 156.8 159.8 16.4 46.6 61 80 113.2 80s96.6-33.4 113-80H631c16.6 46.6 61 80 113 80 52.2 0 96.6-33.4 113-80h6.8c76 0 141.8-54 156.8-128.2 4.4-21.6-9.6-42.8-31.4-47-21.6-4.4-42.8 9.6-47 31.4-7.4 37.2-40.4 64-78.4 64H857c-16.6-46.6-61-80-113-80-52.2 0-96.6 33.4-113 80H383.2c-16.6-46.6-61-80-113-80-52.2 0-96.6 33.4-113 80-42.6-1.6-76.8-36.8-76.8-80V478h567zm-23.6-80H502V168.2h121.8V398zM422 398H292V168h130v230zm411.2-180L928 451.2c7 17 11.6 34.6 14 52.8H821c-22.4 0-43.4-8.6-59.2-24.4l-58.2-58.2V168.2H759c32.8 0 62 19.4 74.2 49.8zM80 248c0-21.4 8.4-41.4 23.4-56.6 15.2-15 35.4-23.4 56.6-23.4h52v230H80V248zm664 526.2c22 0 40 18 40 40s-18 40-40 40-40-18-40-40c0-22.2 17.8-40 40-40zm-474 0c22 0 40 18 40 40s-18 40-40 40-40-18-40-40c0-22.2 18-40 40-40z"/></symbol><symbol id="sprite-calendar" viewBox="0 0 1024 1024"><title/><path d="M984 120.32H787V80c0-22.1-17.88-40-40-40s-40 17.9-40 40v40.32H317V80c0-22.1-17.92-40-40-40s-40 17.9-40 40v40.32H40c-22.1 0-40 17.92-40 40V944c0 22.08 17.9 40 40 40h944c22.1 0 40-17.92 40-40V160.32c0-22.08-17.9-40-40-40zM944 904H80V200.32h157v40.34c0 22.08 17.88 40 40 40s40-17.92 40-40v-40.34h390v40.34c0 22.08 17.92 40 40 40s40-17.92 40-40v-40.34h157V904z"/><path d="M566 469.9c0 29.823-24.177 54-54 54s-54-24.177-54-54 24.177-54 54-54 54 24.177 54 54zm0 235.02c0 29.823-24.177 54-54 54s-54-24.177-54-54 24.177-54 54-54 54 24.177 54 54zM330.98 469.9c0 29.823-24.177 54-54 54s-54-24.177-54-54 24.177-54 54-54 54 24.177 54 54zm470.04 0c0 29.823-24.177 54-54 54s-54-24.177-54-54 24.177-54 54-54 54 24.177 54 54zM330.98 704.92c0 29.823-24.177 54-54 54s-54-24.177-54-54 24.177-54 54-54 54 24.177 54 54zm470.04 0c0 29.823-24.177 54-54 54s-54-24.177-54-54 24.177-54 54-54 54 24.177 54 54z"/></symbol><symbol id="sprite-call" viewBox="0 0 1024 1024"><title/><path d="M327.4 583.2c18.2-18.2 47.6-18.2 65.6 0l94.2 94.2 190-190-94.2-94.2c-8.8-8.8-13.6-20.6-13.6-32.8 0-12.4 4.8-24.2 13.6-32.8l190-190c18.2-18.2 47.6-18.2 65.6 0l127 127c58 58 71.8 150.2 38.6 259.4-30.2 99.2-96.4 203.6-186.6 293.8-126 126-280.6 204.2-403.4 204.2-61.4 0-113.2-19.4-150-56.2l-127-127c-8.8-8.8-13.6-20.6-13.6-32.8 0-12.4 4.8-24.2 13.6-32.8l190.2-190zm2.8 317c19.2 19.2 47.6 29 84.2 29 97.6 0 230-69.4 337.6-177C831.6 672.6 889.6 582 915.4 497c22.4-73.8 16.8-134.6-15.2-166.8l-94-94-124.4 124.4 94.2 94.2c8.8 8.8 13.6 20.6 13.6 32.8s-4.8 24.2-13.6 32.8L520.2 776c-18.2 18.2-47.6 18.2-65.6 0l-94.2-94.2L236 806c37.2 37.2 92.8 93 94.2 94.2zm-185-755C239 51.6 363.4 0 496 0c25.6 0 46.4 20.8 46.4 46.4S521.6 92.8 496 92.8c-107.6 0-208.8 42-285 118-76.2 76.2-118 177.4-118 285 0 25.6-20.8 46.4-46.4 46.4C20.8 542.4 0 521.6 0 496c0-132.6 51.6-257 145.2-350.8zM272.6 496c0 25.6-20.8 46.4-46.4 46.4s-46.4-20.8-46.4-46.4c0-174.4 141.8-316.2 316.2-316.2 25.6 0 46.4 20.8 46.4 46.4s-20.8 46.4-46.4 46.4c-123.2.2-223.4 100.2-223.4 223.4z"/></symbol><symbol id="sprite-car" viewBox="0 0 1024 1024"><title/><path d="M937 374.2l16-16c13.6-13.6 13.6-35.6 0-49.2s-35.6-13.6-49 0l-16.4 16.4L856.2 200c-11.2-45-56.4-80.2-102.6-80.2H268c-46.4 0-91.4 35.2-102.6 80.2L134 325.4 117.6 309c-13.6-13.6-35.6-13.6-49 0-13.6 13.6-13.6 35.6 0 49.2l16 16C33.8 399-1.2 451.2-1.2 511.6v122c0 49.2 23.4 93 59.6 121v60.8c0 49.8 40.4 90.4 90.2 90.4h68c49.8 0 90.2-40.6 90.2-90.4v-29h407.8v29c0 49.8 40.4 90.4 90.2 90.4h68c49.8 0 90.2-40.6 90.2-90.4v-60.8c36.2-28 59.6-71.8 59.6-121v-122c.2-60.4-34.8-112.6-85.6-137.4zM200 348l32.8-131c3.6-14.2 20.8-27.6 35.4-27.6h485.6c14.6 0 31.8 13.4 35.4 27.6L822 348c1 3.6.8 6.8-.4 8.2-1.2 1.6-4.2 2.4-8 2.4H208.4c-3.8 0-6.6-1-8-2.4-1.2-1.6-1.4-4.6-.4-8.2zM68.2 511.6c0-46 37.4-83.4 83.4-83.4H870c46 0 83.4 37.4 83.4 83.4v122c0 46-37.4 83.4-83.4 83.4H151.4c-46 0-83.4-37.4-83.4-83.4v-122zm169.2 304c0 11.4-9.6 20.8-20.8 20.8h-68c-11.2 0-20.8-9.6-20.8-20.8v-31c7.8 1.2 15.6 1.8 23.6 1.8h86v29.2zm656.2 0c0 11.4-9.6 20.8-20.8 20.8h-68c-11.2 0-20.8-9.6-20.8-20.8v-29h86c8 0 16-.6 23.6-1.8v30.8zM391.4 607.2H630c19.2 0 34.8-15.6 34.8-34.8s-15.6-34.8-34.8-34.8H391.4c-19.2 0-34.8 15.6-34.8 34.8.2 19.4 15.6 34.8 34.8 34.8zm-179 59.8c52 0 94.4-42.4 94.4-94.4s-42.4-94.4-94.4-94.4c-52 0-94.4 42.4-94.4 94.4s42.4 94.4 94.4 94.4zm0-119.4c13.8 0 25 11.2 25 25s-11.2 25-25 25-25-11.2-25-25 11.2-25 25-25zM809 667c52 0 94.4-42.4 94.4-94.4S861 478.2 809 478.2c-52 0-94.4 42.4-94.4 94.4S757 667 809 667zm0-119.4c13.8 0 25 11.2 25 25s-11.2 25-25 25-25-11.2-25-25 11.4-25 25-25z"/></symbol><symbol id="sprite-clip" viewBox="0 0 1024 1024"><title/><path d="M475.8 456.8c14-14 14-37 0-51s-36.6-14-50.6 0L236 596.8c-32.2 32.6-49.6 74.8-49.6 120.6s17.4 88 49.6 120.6c66.2 67 173.4 67 238.8 0L902 406.4c44.4-45 68.8-104.8 68.8-168.2S946.4 114.8 902 70c-92.4-93.4-241.4-93.4-333.8 0L142 500.8C84.4 559 53 635.6 53 717.4s31.4 159.4 89 216.8c57.6 58.2 133.4 89.8 214.4 89.8s157.8-31.8 214.4-89.8L760 743c14-14 14-37 0-51s-36.6-14-50.6 0L520.2 883.2c-43.6 44-102 68.8-164 68.8s-120.4-24.6-164-68.8c-43.6-44-68-103-68-165.6s24.4-121.6 68-165.6l426.6-430.8c31.4-31.8 72.4-48.4 116-48.4s85.4 17.6 116 48.4c31.4 31.8 48 73.2 48 117.2s-17.4 86.4-48 117.2L423.6 787c-37.4 37.8-99.4 37.8-137.8 0-18.4-18.4-28.8-43.2-28.8-69.6s10.4-51 28.8-69.6l190-191z"/></symbol><symbol id="sprite-close" viewBox="0 0 1024 1024"><title/><path d="M1024 58.6L965.4 0 512 453.4 58.6 0 0 58.6 453.4 512 0 965.4l58.6 58.6L512 570.6 965.4 1024l58.6-58.6L570.6 512 1024 58.6z"/></symbol><symbol id="sprite-column" viewBox="0 0 1024 1024"><title/><path d="M443 334c-18.4 0-33.4 15-33.4 33.4v356.2c0 18.4 15 33.4 33.4 33.4s33-15 33-33.6v-356c0-18.6-14.6-33.4-33-33.4zm133.2 0c-18.4 0-33.4 15-33.4 33.4v356.2c0 18.4 15 33.4 33.4 33.4s33.2-15 33.2-33.4V367.4c0-18.6-14.6-33.4-33.2-33.4zm362-193.6C919 63 853.4 7.8 777.6 0H244.2c-76.4 7-143 62.4-162.6 140.4-22.4 89.6 24 164.4 93.8 189.6 35.2 12.8 71 10.8 101-4.2v503.6c-38.8 13.8-66.6 50.8-66.6 94.4v66.8c0 18.4 15 33.4 33.4 33.4h533.2c18.4 0 33.2-15 33.2-33.4v-66.8c0-43.6-27.8-80.6-66.6-94.4v-504c29.8 15.2 66.2 17.6 102.4 4.6 68.8-25.2 115.4-99.2 92.8-189.6zM743 923.8v33.4H276.2v-33.4c0-18.4 15.2-33.4 33.6-33.4h400c18.2 0 33.2 15 33.2 33.4zM342.8 823.6V267.2h333.4v556.6H342.8zM822.4 267c-25 9-57.6 6.6-74-27.6-4.4-9-5.2-18-2.4-24.2 3.6-7.8 13.8-11.8 21.6-13.8 17.8-4.4 28.8-22.6 24.2-40.4-4.4-17.8-22.6-28.8-40.4-24.4-39.6 10-57.6 32.8-65.8 50.2-2 4.4-3.6 8.8-4.8 13.4H339.2c-1.2-4.6-2.8-9-4.8-13.4-8.2-17.4-26.2-40.2-65.8-50.2-17.8-4.4-36 6.4-40.4 24.4-4.4 17.8 6.4 36 24.2 40.4 7.8 2 18 6 21.6 13.8 2.8 6.2 2 15.2-2.4 24.2-16.4 34.2-48.8 36.6-73.6 27.8-36.2-13.2-66.2-52.4-51.6-110.6 12-48.2 52-83 98.6-89.4l2.4-.4H774l6.4 1c44.2 8.4 81.6 42.4 93.2 88.8 14.6 58.2-15.2 97.4-51.2 110.4z"/></symbol><symbol id="sprite-cook" viewBox="0 0 1024 1024"><title/><path d="M1024 143.8L880.2 0 544.8 335.4 162.6 487.8c-9.4 4.4-25.6 13.6-27.4 14.6l-.8.4c-19 11.6-36.6 25.4-52.2 41.2-109.6 109.6-109.6 288 0 397.8C137 996.6 209 1024 281 1024s144-27.4 198.8-82.2c15.8-15.8 37.8-47.2 40.2-50.8l.8-1 .6-1.2c1-1.8 10.2-18 14.6-27.4l152.4-382.2L1024 143.8zM603.6 361.4l185-185 59 59-185 185-59-59zm335.6-217.6L890 193l-59-59 49.2-49.2 59 59zM124.6 586.4c12.4-12.4 26-23.2 40.8-32.2 5.8-3.4 16.2-9.2 21.8-11.8l366.6-146.2 2.8 2.8-304.2 215.4c-45.6 32.2-86 73.8-116.6 120.2C112.4 769.8 95 807.4 84.6 845c-43-83.6-29.8-188.8 40-258.6zm413.8-100.8L360.8 736.8c-56 79.2-141.6 136.6-224.2 150.6 14-82.6 71.6-168.2 150.6-224.2l251.2-177.6zm-57 351.2c-2.6 5.2-8 15-11.4 21-6.4 9.2-22.8 31.8-32.6 41.6-69.8 69.8-175 83.2-258.4 40 37.4-10.4 75-27.8 110.2-51.2 46.4-30.6 87.8-71 120.2-116.6l215-304.2 2.8 2.8-145.8 366.6z"/></symbol><symbol id="sprite-instagram" viewBox="0 0 1024 1024"><title/><path d="M740.6 1.2H281.8C126 1.2-.8 128-.8 283.8v458.8c0 155.8 126.8 282.6 282.6 282.6h458.8c155.8 0 282.6-126.8 282.6-282.6V283.8C1023.2 128 896.4 1.2 740.6 1.2zm191.8 741.4c0 105.8-86 191.8-191.8 191.8H281.8C176 934.4 90 848.4 90 742.6V283.8C90 178 176 92 281.8 92h458.8c105.8 0 191.8 86 191.8 191.8v458.8zM511.2 249.4c-145.6 0-263.8 118.4-263.8 263.8 0 145.6 118.4 263.8 263.8 263.8S775 658.6 775 513.2c.2-145.4-118.2-263.8-263.8-263.8zm0 436.8c-95.4 0-173-77.6-173-173s77.6-173 173-173 173 77.6 173 173-77.6 173-173 173zm275-513.8c-17.6 0-34.6 7-47 19.4s-19.6 29.6-19.6 47.2 7.2 34.6 19.6 47.2c12.4 12.4 29.6 19.4 47 19.4 17.6 0 34.6-7.2 47.2-19.4 12.4-12.4 19.6-29.6 19.6-47.2s-7-34.8-19.6-47.2c-12.4-12.4-29.6-19.4-47.2-19.4z"/></symbol><symbol id="sprite-key" viewBox="0 0 1024 1024"><title/><path d="M917.2 106.4C848.6 37.8 757.4 0 660.4 0c-97.2 0-188.4 37.8-257 106.4-48.8 48.8-82.6 110.2-97.6 177.4-12.8 57.4-11.6 116.8 3.6 173.4L10.6 755.8c-7.4 7.4-11.4 17.4-11.2 28l5 198.2c.4 20.4 16.8 36.8 37.2 37.2l198.2 4.8h1c10.2 0 19.8-4 27-11.2l298.6-298.6c30.6 8.2 62 12.2 94 12.2 97 0 188.2-37.8 256.8-106.4 141.8-141.6 141.8-372 0-513.6zm-54 459.8c-54.2 54.2-126.2 84-202.8 84-31.6 0-62.8-5.2-92.6-15.2-13.8-4.6-29-1.2-39.4 9.2l-66 66-18-18c-15-15-39.2-15-54 0-15 15-15 39 0 54l18 18-73.6 73.6-18-18c-15-15-39.2-15-54 0-15 15-15 39.2 0 54l18 18-55.4 55.4L80 943.6l-3.6-145.4L379.6 495c10.2-10.2 13.8-25.6 9.2-39.2-35.4-104.4-9-217.4 68.8-295.4 54.2-54.2 126.2-84 202.8-84 63.8 0 124.4 20.6 174 58.8L724.2 245.4c-18.2-9.6-38.6-14.8-59.8-14.8-34.4 0-66.6 13.4-90.8 37.6-50.2 50-50.2 131.6 0 181.8 24.2 24.2 56.6 37.6 90.8 37.6 34.4 0 66.6-13.4 90.8-37.6s37.6-56.6 37.6-90.8c0-21.2-5.2-41.6-14.8-59.8l110-110c86.2 112.2 78 274-24.8 376.8zm-162-243.8c9.8 9.8 15.2 23 15.2 36.8 0 14-5.4 27-15.2 36.8s-23 15.2-36.8 15.2c-14 0-27-5.4-36.8-15.2-20.4-20.2-20.4-53.4 0-73.6 9.8-9.8 23-15.2 36.8-15.2 14-.2 27 5.2 36.8 15.2z"/></symbol><symbol id="sprite-logotype" viewBox="0 0 512 200"><title>logotype</title><path d="M-.6 18h19.4c8 0 14.4 1.5 19 4.5 2.1 1.4 3.8 3 5.2 4.9 1.3 1.9 2.3 3.9 2.8 6.1.5 2.2.8 4 1 5.3.1 1.3.2 3 .2 4.9 0 3.4-.3 6.1-.9 8.3-.6 2.2-1.8 4.2-3.5 6.1-1.5 1.7-3.3 3.1-5.4 4.3 2.9 1.2 5.2 3.2 6.9 5.8 1.3 2.1 2.1 3.9 2.4 5.4.3 1.5.5 3.6.5 6.2v7c0 8.9-2.9 15.3-8.7 19.3-4.1 2.9-9.8 4.4-17.1 4.4H-.6V18zm14.4 12v26.4h6.9c4.2 0 7.2-1.1 9.2-3.4 1.8-1.9 2.7-4.6 2.7-8v-5.7c0-2.4-.9-4.5-2.7-6.3-2.2-2-5.3-3-9.4-3h-6.7zm0 38.3v30.4h6.5c4.3 0 7.6-1.4 9.8-4.1 1.7-2.1 2.6-5.3 2.6-9.3v-4.4c0-2.4-.3-4.5-.8-6s-1.6-2.9-3-4.1c-2.1-1.6-4.6-2.4-7.6-2.4h-7.5v-.1zm49.9 18V42.4c0-4.3.5-8 1.4-11.1.9-3 2.9-5.9 6-8.6 4.6-4 10.5-6 17.7-6s13.1 2 17.7 6c3.1 2.7 5.1 5.5 6 8.6.9 3.1 1.4 6.8 1.4 11.1v43.9c0 4.3-.5 8-1.4 11.1-.9 3.1-3 5.9-6 8.6-4.6 4-10.5 6-17.7 6s-13.1-2-17.7-6c-3.1-2.7-5.1-5.5-6-8.6-1-3-1.4-6.7-1.4-11.1zm35.9 2V40.4c0-3.5-1-6.2-3-8.1-1.9-1.8-4.5-2.6-7.8-2.6s-5.9.9-7.8 2.6c-2 1.9-3 4.5-3 8.1v47.9c0 3.5 1 6.2 3 8.1 1.9 1.8 4.5 2.6 7.8 2.6s5.9-.9 7.8-2.6c2-1.9 3-4.6 3-8.1zm31-70.3h14.5l24 58.3V18h14.3v92.6h-14.3l-24-58.1v58.1h-14.5V18zm153 92.6h-14.3l-4.8-19.8h-18.4l-4.8 19.8H227L249 18h12.6l22 92.6zm-20.8-31.5L255 43.9l-7.5 35.2h15.3zm33 31.5V18h21.4c2.7 0 4.9.1 6.7.2 1.8.2 4 .7 6.6 1.7 2.6 1 4.8 2.4 6.8 4.2 2.9 2.8 4.9 5.9 5.8 9.4 1 3.5 1.4 7.4 1.4 11.7v2.6c0 8.2-2 14.5-6.2 18.8-4.7 4.8-11.2 7.3-19.8 7.3H310v36.6h-14.2v.1zM310.2 30v32.1h7.7c4.2 0 7.4-1.1 9.6-3.4.3-.4.6-.7.9-1 .3-.3.5-.7.7-1.1.2-.4.4-.7.5-1 .1-.3.2-.6.3-1.1.1-.5.2-.8.2-1 0-.2.1-.6.1-1.1 0-.6.1-.9.1-1V43c0-1.2 0-2.1-.1-2.7 0-.6-.2-1.4-.4-2.6-.2-1.1-.6-2.1-1.1-3-.6-.9-1.3-1.7-2.3-2.4-1-.8-2.3-1.3-3.7-1.7-1.4-.4-2.6-.6-3.4-.6-.8 0-2.2-.1-4.1-.1h-5v.1zm84.8 80.6h-14.3l-4.8-19.8h-18.4l-4.8 19.8h-14.4L360.4 18H373l22 92.6zm-20.8-31.5l-7.7-35.2-7.5 35.2h15.2zm33-61.1H427c2.5 0 4.5 0 6.1.1 1.5.1 3.5.3 5.9.7 2.4.4 4.6 1.2 6.6 2.2 2 1.1 3.7 2.5 5.2 4.2 3.5 4 5.3 9.3 5.3 16.1v7c0 2.9-.5 5.6-1.5 8.3s-2.3 4.8-3.8 6.4c-2 2-4.6 3.6-7.6 4.7l15.8 42.8h-15l-13.9-39.9h-8.5v39.9h-14.4V18zm14.4 12v28.8h8.2c3.6 0 6.6-1 8.9-3 1.3-1.2 2.1-2.3 2.5-3.5.4-1.2.5-2.8.5-4.8v-6.6c0-3.6-1.1-6.4-3.3-8.5-.3-.3-.6-.5-1-.8-.3-.2-.7-.4-1.1-.6-.4-.2-.7-.3-1-.5-.3-.1-.6-.2-1.1-.3-.5-.1-.8-.1-1-.2-.2 0-.6-.1-1.1-.1h-10.5v.1zm39.7-12h50.1v12.6h-17.8v80h-14.5v-80h-17.8V18z" fill="#fff"/><path d="M24.4 140.9c3.1 0 6 .7 8.6 2.2 2.6 1.5 4.7 3.5 6.3 6 1.6 2.5 2.3 5.2 2.3 8.1 0 3-.8 5.7-2.3 8.2-1.5 2.5-3.6 4.5-6.2 6s-5.4 2.2-8.4 2.2-5.8-.7-8.5-2.2c-2.6-1.4-4.7-3.4-6.2-5.9-1.5-2.5-2.3-5.2-2.3-8.1 0-2.9.8-5.7 2.3-8.2 1.5-2.6 3.5-4.6 6.1-6.1 2.6-1.5 5.4-2.2 8.3-2.2zm.3 4c-2.4.1-4.5.7-6.5 1.8-1.9 1.1-3.4 2.6-4.5 4.5s-1.6 4-1.6 6.2.6 4.3 1.7 6.1c1.1 1.9 2.7 3.4 4.6 4.5s4.1 1.6 6.4 1.6c2.3 0 4.4-.6 6.3-1.7 1.9-1.1 3.4-2.7 4.5-4.6 1.1-1.9 1.6-4.1 1.6-6.4 0-2.1-.6-4.1-1.7-6-1.1-1.9-2.6-3.4-4.5-4.5s-3.9-1.7-6.1-1.7h-.2v.2zM66.4 173v-27.6h-7.6v-3.8h19.7v3.8h-7.7V173h-4.4zm56 0H97.8v7.3h-3.9v-11.1H97l11.2-27.6h3.6l11.3 27.6h3.2v11.1h-4V173h.1zm-3.9-3.8l-8.3-21.2-.1-1-.1 1-8.3 21.2h16.8zm25.7 3.8v-31.4l4.4-.1v11.9h5.3c3.5 0 6.1.3 7.7 1 1.1.4 2 1.1 2.8 1.9.8.8 1.4 1.8 1.8 3 .4 1.2.6 2.4.6 3.8 0 3-.9 5.3-2.6 7-1.1 1-2.3 1.7-3.8 2.1-1.5.4-3.6.6-6.4.6h-9.8v.2zm27.1 0v-31.4h4.4V173h-4.4zm-22.7-15.8v12h5c1 0 1.9-.1 2.8-.1.8-.1 1.6-.2 2.3-.4 1.2-.4 2.1-1 2.7-2 .6-.9.9-2.1.9-3.5 0-1.7-.4-3.1-1.3-4-.5-.6-1.3-1.1-2.3-1.5-.9-.3-2.6-.4-5.1-.4h-5v-.1zm45.2 15.8l11-16-11-15.5h5.1l8.6 12.2 8.7-12.2h5.1L210.2 157l11.1 16h-5.1l-8.7-12.6-8.6 12.6h-5.1zm84.9-31.5h4.7L264.6 184H260l5.1-12-12.5-30.5h4.7l10.4 25.1 11-25.1zm38.8 31.5v-31.4h6.8l10.8 24.4.4 1.5.4-1.6 10.3-24.3h6.7V173h-4.4v-27.3L336.6 173h-2.8l-11.9-27.3V173h-4.4zm71.7-32.1c3.1 0 6 .7 8.6 2.2 2.6 1.5 4.7 3.5 6.3 6 1.6 2.5 2.3 5.2 2.3 8.1 0 3-.8 5.7-2.3 8.2-1.5 2.5-3.6 4.5-6.2 6s-5.4 2.2-8.4 2.2-5.8-.7-8.5-2.2c-2.6-1.4-4.7-3.4-6.2-5.9-1.5-2.5-2.3-5.2-2.3-8.1 0-2.9.8-5.7 2.3-8.2 1.5-2.6 3.5-4.6 6.1-6.1 2.5-1.5 5.3-2.2 8.3-2.2zm.3 4c-2.4.1-4.5.7-6.5 1.8-1.9 1.1-3.4 2.6-4.5 4.5s-1.6 4-1.6 6.2.6 4.3 1.7 6.1c1.2 1.9 2.7 3.4 4.6 4.5 1.9 1.1 4.1 1.6 6.4 1.6 2.3 0 4.4-.6 6.3-1.7 1.9-1.1 3.4-2.7 4.5-4.6 1.1-1.9 1.6-4.1 1.6-6.4 0-2.1-.6-4.1-1.7-6-1.1-1.9-2.6-3.4-4.5-4.5s-3.9-1.7-6.1-1.7h-.2v.2zm36.9-3.4h4.1v5.5c.9-1.3 1.8-2.2 2.5-2.7 3-2.3 6.6-3.5 10.6-3.5 2.5 0 4.9.5 7.2 1.6s4.3 2.6 6.1 4.5c2.6 2.8 3.9 6.3 3.9 10.4 0 3-.8 5.7-2.3 8.2-1.6 2.5-3.7 4.5-6.4 5.9-2.7 1.5-5.6 2.2-8.7 2.2-4.1 0-7.5-1.2-10.1-3.6-.8-.6-1.6-1.7-2.3-3v17h-4.4v-42.5h-.2zm16.9 28.1c1.9-.1 3.7-.4 5.2-1 1.6-.6 3-1.5 4.2-2.6 1.2-1.1 2.1-2.4 2.7-3.9.6-1.5.9-3.1.9-4.8 0-2.2-.6-4.3-1.7-6.2-1.2-1.9-2.7-3.4-4.7-4.5s-4.2-1.7-6.5-1.7c-2.4 0-4.6.5-6.6 1.6s-3.5 2.6-4.7 4.5c-1.1 1.9-1.7 4-1.7 6.3s.6 4.3 1.7 6.2c1.1 1.9 2.6 3.4 4.5 4.5s4 1.7 6.3 1.7h.4v-.1zM478 173l12.6-13.4c-2-.1-3.7-.4-5.2-1.2-1.5-.7-2.6-1.7-3.3-3-.8-1.3-1.1-2.8-1.1-4.6 0-2.6.9-4.8 2.6-6.4 1.1-1 2.4-1.7 4-2.2 1.5-.4 3.6-.6 6.3-.6h9.2V173h-4.4v-28h-3.8c-2.5 0-4.5.2-5.9.5-1.1.3-2 .9-2.7 1.9-.7 1-1 2.2-1 3.5 0 2.3 1 4 2.9 5.1.9.5 1.9.9 2.9 1.1 1 .2 2.6.3 4.6.3h2.1l-14 15.6H478z" fill="#d1ac84"/></symbol><symbol id="sprite-mail" viewBox="0 0 1024 1024"><title/><path d="M981.2 116.8H41.8c-22.4 0-42.2 17.6-42.2 42v708C-.4 889 17.4 909 41.8 909h939.6c24.4 0 42.2-19.8 42.2-42.2v-708c-.2-22.2-18-42-42.4-42zM83.8 260.4L332 508.2 83.8 756V260.4zM511.4 568L145.8 203H877L511.4 568zm-119.6 0l88.6 88.4c18.6 18.6 43.6 18.4 62 0L630 569l253.6 253.2H137L391.8 568zM690 509.4l249.2-248.8v497.6L690 509.4z"/></symbol><symbol id="sprite-menu" viewBox="0 0 1024 1024"><title/><path d="M0 137h1024v87.8H0V137zm0 328.4h1024v87.8H0v-87.8zm0 333.8h1024V887H0v-87.8z"/></symbol><symbol id="sprite-pin" viewBox="0 0 1024 1024"><title/><path d="M481.2 909.2c-33-33-323.2-329.6-323.2-529.6C158 170.8 316.2-.6 512-.6s354 171.4 354 380.2c0 197.6-290.2 494.4-323.2 529.6-8.8 8.8-37 24.6-61.6 0zm30.8-824C364.6 85.2 243.8 217 243.8 382c0 123 173.8 334 268.2 437.2C608.8 716 780.2 507.2 780.2 382c0-165-120.8-296.8-268.2-296.8zm0 428.6c-88 0-160.6-72.6-160.6-160.4 0-88 72.6-160.6 160.6-160.6s160.6 72.6 160.6 160.6c0 87.8-72.6 160.4-160.6 160.4zm0-237.2c-41.8 0-77 35.2-77 77s35.2 76.8 77 76.8 77-35.2 77-76.8c0-44.2-35.2-77-77-77zm211 747H301c-24.2 0-41.8-19.8-41.8-41.8S279 940 301 940h424.2c24.2 0 41.8 19.8 41.8 41.8 0 21.8-19.8 41.8-44 41.8z"/></symbol><symbol id="sprite-point" viewBox="0 0 512 512"><title>point</title><circle cx="262.5" cy="185.5" r="109.5" fill="#fff"/><path fill="#F0BD0F" d="M256 0C152.05 0 67.5 84.56 67.5 188.5c0 27.1 5.55 53 16.48 76.94 47.13 103.12 137.5 212 164.07 242.9a10.47 10.47 0 0 0 15.9.01c26.57-30.9 116.93-139.77 164.07-242.9 10.94-23.96 16.48-49.84 16.48-76.95C444.5 84.56 359.93 0 256 0zm0 286.4c-54 0-97.92-43.92-97.92-97.9s43.93-97.92 97.9-97.92c54 0 97.93 43.93 97.93 97.9S310 286.42 256 286.42z"/></symbol><symbol id="sprite-rooms" viewBox="0 0 1024 1024"><title/><path d="M1024 120v420c0 66.2-53.8 120-120 120h-68v-80h68c22 0 40-18 40-40V326H838v40h-80V206h80v40h106V120c0-22-18-40-40-40H580v166h40v80H460v-80h40V80H390V0h514c66.2 0 120 53.8 120 120zM580 464h-80v440c0 22-18 40-40 40h-66v80h66c66.2 0 120-53.8 120-120V660h114v-80H580V464zm-298 42H80V120c0-22 18-40 40-40h70V0h-70C53.8 0 0 53.8 0 120v784c0 66.2 53.8 120 120 120h72v-80h-72c-22 0-40-18-40-40V586h202v38h80V464h-80v42z"/></symbol><symbol id="sprite-scroll" viewBox="0 0 1024 1024"><title/><path d="M512 0C313.4 0 152 164.2 152 366.2v291.6c0 202 161.4 366.2 360 366.2 198.4 0 360-163.8 360-365V366.2C872 164.2 710.4 0 512 0zm292.2 659c0 164-131.2 297.2-292.2 297.2-161.2 0-292.2-133.8-292.2-298.4V366.2C219.8 201.6 351 67.8 512 67.8c161.2 0 292.2 133.8 292.2 298.4V659zM512 280.2c-18.6 0-33.8 15.2-33.8 34v118.6c0 18.8 15.2 34 33.8 34s33.8-15.2 33.8-34V314.2c0-18.8-15.2-34-33.8-34z"/></symbol><symbol id="sprite-shower" viewBox="0 0 1024 1024"><title/><path d="M944 420V166C944 74.4 869.6 0 778 0S612 74.4 612 166h80c0-47.4 38.6-86 86-86s86 38.6 86 86v254H688.6c2.2-4.8 3.4-10.2 3.4-16 0-22-18-40-40-40s-40 18-40 40c0 5.8 1.2 11.2 3.4 16H0v92c0 224.6 139 351.4 256.4 403.6C230.2 944 214 982.2 214 1024h80c0-44.2 35.8-80 80-80h276c44.2 0 80 35.8 80 80h80c0-41.8-16.2-80-42.4-108.4C885 863.4 1024 736.6 1024 512v-92h-80zm0 92c0 140.2-64.8 225.8-119 273-66.4 57.6-140 79-171 79H370c-31 0-104.6-21.4-171-79-54.4-47.2-119-132.8-119-273v-12h864v12zM652 224c22 0 40 18 40 40s-18 40-40 40-40-18-40-40c0-22.2 18-40 40-40z"/></symbol><symbol id="sprite-sleep" viewBox="0 0 1024 1024"><title/><path d="M66.8 990.6c0 18.4-15 33.4-33.4 33.4S0 1009 0 990.6s15-33.4 33.4-33.4 33.4 15 33.4 33.4zm122.4-256C134 734.6 89 779.6 89 834.8S134 935 189.2 935s100.2-45 100.2-100.2-45-100.2-100.2-100.2zm0 133.6c-18.4 0-33.4-15-33.4-33.4s15-33.4 33.4-33.4 33.4 15 33.4 33.4-15 33.4-33.4 33.4zM712.4 345h-53l76.6-76.6c21-21 6.2-57-23.6-57H578.8c-18.4 0-33.4 15-33.4 33.4s15 33.4 33.4 33.4h53l-76.6 76.6c-21 21-6.2 57 23.6 57h133.6c18.4 0 33.4-15 33.4-33.4s-15-33.4-33.4-33.4zm-267.2 66.8h-53l76.6-76.6c21-21 6.2-57-23.6-57H311.6c-18.4 0-33.4 15-33.4 33.4s15 33.4 33.4 33.4h53L288 421.6c-21 21-6.2 57 23.6 57h133.6c18.4 0 33.4-15 33.4-33.4s-15-33.4-33.4-33.4zm440.6-207C862.6 104.8 757.6 42.6 657 75.4 624 28.8 570 0 512 0S400 28.8 367 75.6C266.2 42.8 161.2 105 138.2 204.8 58.8 223.2 0 294.8 0 378.4S58.8 533.6 138.2 552c23.2 100 128 162.2 228.8 129.4 33 46.6 87 75.4 145 75.4s112-28.8 145-75.6c100.8 32.8 205.8-29.4 228.8-129.4 79.2-18.4 138.2-90 138.2-173.6s-58.8-155-138.2-173.4zm-31.6 284.6c-16.6 1.2-29.6 14.4-30.8 30.8-5.8 79.8-93.2 128.4-164.4 89.4-17-9.4-38.4-2.2-46.4 15.4-18 39.4-57.6 65-100.6 65s-82.6-25.6-100.6-65c-8-17.6-29.4-24.6-46.4-15.4-71 38.8-158.4-9.6-164.4-89.4-1.2-16.4-14.4-29.6-30.8-30.8-57.8-4.2-103-53-103-111s45.2-106.8 103-111c16.4-1.2 29.6-14.4 30.8-30.8 5.8-79.8 93.2-128.4 164.4-89.4 17 9.4 38.4 2.2 46.4-15.4 18-39.4 57.6-65 100.6-65s82.6 25.6 100.6 65c8 17.6 29.4 24.6 46.4 15.4 71-38.8 158.4 9.6 164.4 89.4 1.2 16.6 14.4 29.6 30.8 30.8 57.8 4.2 103 53 103 111s-45.2 106.8-103 111z"/></symbol><symbol id="sprite-star_active" viewBox="0 0 512 512"><title>star_active</title><path d="M256 19l84.4 148.9L512 200 392.5 324.2 414.2 493 256 420.8 97.7 493l21.7-168.8L0 200l171.6-32.1L256 19" fill-rule="evenodd" clip-rule="evenodd" fill="#f3bd00"/></symbol><symbol id="sprite-star" viewBox="0 0 512 512"><title>star</title><path d="M256 19l84.4 148.9L512 200 392.5 324.2 414.2 493 256 420.8 97.7 493l21.7-168.8L0 200l171.6-32.1L256 19" fill-rule="evenodd" clip-rule="evenodd" fill="#c1c1c1"/></symbol><symbol id="sprite-ticket" viewBox="0 0 1024 1024"><title/><path d="M944 512c0 28.4 20.2 53.2 48 58.8 18.6 3.8 32 20.2 32 39.2v102c0 61.4-35.8 118-91.2 144.4-20 9.6-43.8 1-53.4-18.8-9.6-20-1-43.8 18.8-53.4C926 771 944 742.6 944 712v-73.6c-47.8-22.8-80-71.6-80-126.6 0-54.8 32.2-103.8 80-126.6V312c0-44.2-35.8-80-80-80H740c0 22-18 40-40 40s-40-18-40-40H160c-44.2 0-80 35.8-80 80v73.4c47.8 22.8 80 71.6 80 126.6 0 54.8-32.2 103.8-80 126.6V712c0 44.2 35.8 80 80 80h500c0-22 18-40 40-40s40 18 40 40v40c0 22-18 40-40 40H160C71.8 872 0 800.2 0 712V610c0-19 13.4-35.4 32-39.2 27.8-5.6 48-30.4 48-58.8s-20.2-53.2-48-58.8C13.4 449.4 0 433 0 414V312c0-88.2 71.8-160 160-160h704c88.2 0 160 71.8 160 160v102c0 19-13.4 35.4-32 39.2-27.8 5.6-48 30.4-48 58.8zM700 332c-22 0-40 18-40 40s18 40 40 40 40-18 40-40-18-40-40-40zm0 140c-22 0-40 18-40 40s18 40 40 40 40-18 40-40-18-40-40-40zm0 140c-22 0-40 18-40 40s18 40 40 40 40-18 40-40-18-40-40-40zM344 392c0-33.2-26.8-60-60-60s-60 26.8-60 60 26.8 60 60 60 60-26.8 60-60zm164 300c33.2 0 60-26.8 60-60s-26.8-60-60-60-60 26.8-60 60 26.8 60 60 60zm-249-8.8c7.4 5.8 16.2 8.8 25 8.8 11.8 0 23.4-5.2 31.2-15l224-280c13.8-17.2 11-42.4-6.2-56.2s-42.4-11-56.2 6.2l-224 280c-13.8 17.2-11 42.4 6.2 56.2z"/></symbol><symbol id="sprite-train" viewBox="0 0 1024 1024"><title/><path d="M797.8 1025.4h107.6L729 829.4h51.4c66 0 119.8-53.8 119.8-120v-446c0-110.2-89.6-200-199.6-200h-84.8c-20.4-37-59.8-62-104.8-62s-84.4 25-104.8 62h-88.8c-110 0-199.6 89.8-199.6 200v446c0 66.2 53.8 120 119.8 120H292l-176.4 196H223l50.4-56h474.2l50.2 56zm22.4-762v184H550.6v-213c39.8-14.2 70-48.8 77.8-91.2h72c66 .2 119.8 54 119.8 120.2zm-309.4-182c22 0 40 18 40 40s-18 40-40 40-40-18-40-40 18-40 40-40zm-193.6 62h76c7.8 42.4 38 77 77.8 91.2v212.8H197.4v-184c0-66.2 53.8-120 119.8-120zm-119.8 566v-182h622.8v182c0 22-18 40-40 40H237.4c-22.2 0-40-18-40-40zm147.8 180l54-60h222.2l54 60H345.2zm-8.2-240c0 22-17.8 40-40 40-22 0-40-18-40-40s17.8-40 40-40 40 17.8 40 40zm421.2 0c0 22-17.8 40-40 40-22 0-40-18-40-40s17.8-40 40-40 40 17.8 40 40z"/></symbol><symbol id="sprite-tripadvisor" viewBox="0 0 1024 1024"><title/><path d="M270.2 413.2C191.8 413.2 128 477 128 555.4s63.8 142.2 142.2 142.2 142.2-63.8 142.2-142.2c0-78.4-63.8-142.2-142.2-142.2zm0 224.6c-45.4 0-82.4-37-82.4-82.4s37-82.4 82.4-82.4c45.4 0 82.4 37 82.4 82.4 0 45.6-37 82.4-82.4 82.4zm480.4-224.6c-78.4 0-142.2 63.8-142.2 142.2s63.8 142.2 142.2 142.2c78.4 0 142.2-63.8 142.2-142.2S829 413.2 750.6 413.2zm0 224.6c-45.4 0-82.4-37-82.4-82.4s37-82.4 82.4-82.4c45.4 0 82.4 37 82.4 82.4 0 45.6-37 82.4-82.4 82.4zM1024 285.4H795C726.8 219.2 621.6 180 510.4 180c-106.8 0-214.4 40.2-284.6 105.4H1.8l61 97C23.6 429.4 0 489.6 0 555.4c0 149 121.2 270.2 270.2 270.2 77 0 146.6-32.4 195.8-84.2l44.4 102.4 44.4-102.4c49.2 51.8 118.8 84.2 195.8 84.2 149 0 270.2-121.2 270.2-270.2 0-64-22.4-123-60-169.4l63.2-100.6zm-321.4 4.2c-83.8 15-154.4 69-192.2 142.4C472.8 359.2 403 305.4 320 290c54.8-31.8 122.6-50.2 190.4-50.2 71 0 138.6 18 192.2 49.8zM270.2 765.8c-116 0-210.2-94.4-210.2-210.4s94.4-210.2 210.2-210.2c116 0 210.2 94.4 210.2 210.2 0 116-94.4 210.4-210.2 210.4zm480.4 0c-116 0-210.4-94.4-210.4-210.4s94.4-210.2 210.4-210.2 210.2 94.4 210.2 210.2c0 116-94.4 210.4-210.2 210.4zM270.2 524.2c-17.2 0-31.4 14-31.4 31.4 0 17.2 14 31.4 31.4 31.4 17.2 0 31.4-14 31.4-31.4-.2-17.4-14.2-31.4-31.4-31.4zm481.8 0c-17.2 0-31.4 14-31.4 31.4 0 17.2 14 31.4 31.4 31.4 17.2 0 31.4-14 31.4-31.4-.2-17.4-14.2-31.4-31.4-31.4z"/></symbol><symbol id="sprite-tv" viewBox="0 0 1024 1024"><title/><path d="M981.4 185.8H497.6L603.8 72c16-17.4 15-44.4-2-60.4s-44.4-15-60.4 2L405.6 159.4l-136-145.8c-16-17.4-43-18.2-60.4-2-17.2 16-18.2 43-2 60.4l106.2 113.8H42.6C19 185.8 0 204.8 0 228.4v681.8c0 23.6 19 42.6 42.6 42.6h88v28.4c0 23.6 19 42.6 42.6 42.6s42.6-19 42.6-42.6v-28.4H808v28.4c0 23.6 19 42.6 42.6 42.6s42.6-19 42.6-42.6v-28.4h88c23.6 0 42.6-19 42.6-42.6V228.4c.4-23.6-18.8-42.6-42.4-42.6zm-42.6 681.8H85.2V271h853.4v596.6h.2zM801 503.4c23.6 0 42.6-19 42.6-42.6v-61.6c0-23.6-19-42.6-42.6-42.6s-42.6 19-42.6 42.6v61.4c0 23.6 19 42.8 42.6 42.8z"/><path d="M845.8 732.2c0 24.742-20.058 44.8-44.8 44.8s-44.8-20.058-44.8-44.8c0-24.742 20.058-44.8 44.8-44.8s44.8 20.058 44.8 44.8z"/></symbol><symbol id="sprite-watch" viewBox="0 0 1024 1024"><title/><path d="M1024 512c0 101-30 199.4-86.8 284.2-12.2 18.4-37.2 23.2-55.4 11-18.4-12.2-23.2-37.2-11-55.4C918.6 680 944 597.2 944 512c0-238.2-193.8-432-432-432S80 273.8 80 512s193.8 432 432 432c79 0 156.2-21.6 223.4-62.2 19-11.4 43.4-5.4 55 13.4 11.4 18.8 5.4 43.4-13.4 55-79.8 48.2-171.4 73.8-265 73.8-136.8 0-265.4-53.2-362-150C53.2 777.4 0 648.8 0 512s53.2-265.4 150-362C246.6 53.2 375.2 0 512 0s265.4 53.2 362 150c96.8 96.6 150 225.2 150 362zM514 160c-22 0-40 18-40 40v242.8c-24 13.8-40 39.6-40 69.2 0 44.2 35.8 80 80 80 7.2 0 14.2-1 20.8-2.8l106 106c7.8 7.8 18 11.8 28.2 11.8s20.4-4 28.2-11.8c15.6-15.6 15.6-41 0-56.6l-106-106c1.8-6.6 2.8-13.6 2.8-20.8 0-29.6-16-55.4-40-69.2V200c0-22-18-40-40-40z"/></symbol><symbol id="sprite-wave" viewBox="0 0 1024 1024"><title/><path d="M947 421.8c-36.2 63.6-122.4 86.2-185.8 49.8-22.6-13.6-36.2-27.2-49.8-49.8-18.2-27.2-63.4-27.2-81.6 0-36.2 63.6-122.4 86.2-185.8 49.8-22.6-13.6-36.2-27.2-49.8-49.8-18.2-27.2-63.4-27.2-81.6 0-36.2 63.6-122.4 86.2-185.8 49.8-22.6-13.6-36.2-27.2-49.8-49.8L0 467.2c40.8 68 113.2 113.4 194.8 113.4 59 0 117.8-27.2 158.6-68 86 86.2 226.6 90.8 312.6 4.6l4.6-4.6c90.6 86.2 231 86.2 321.8-4.6 13.6-13.6 22.6-27.2 31.8-40.8L947 421.8zm0 317.6c-22.6 40.8-68 68-117.8 68s-95.2-27.2-117.8-68c-18.2-27.2-63.4-27.2-81.6 0-36.2 63.6-122.4 86.2-185.8 49.8-22.6-13.6-36.2-27.2-49.8-49.8-18.2-27.2-63.4-27.2-81.6 0-36.2 63.6-122.4 86.2-185.8 49.8-22.6-13.6-36.2-27.2-49.8-49.8L0 784.6c63.4 108.8 203.8 140.6 312.6 77.2 13.6-9 31.8-18.2 40.8-31.8 86 86.2 226.6 90.8 312.6 4.6l4.6-4.6c90.6 86.2 231 86.2 321.8-4.6 13.6-13.6 22.6-27.2 31.8-40.8L947 739.4zM557.4 263c0 25.074-20.326 45.4-45.4 45.4s-45.4-20.326-45.4-45.4c0-25.074 20.326-45.4 45.4-45.4s45.4 20.326 45.4 45.4zm317.2 90.8c0 25.074-20.326 45.4-45.4 45.4s-45.4-20.326-45.4-45.4c0-25.074 20.326-45.4 45.4-45.4s45.4 20.326 45.4 45.4zm-45.4-181.4c0 25.074-20.326 45.4-45.4 45.4s-45.4-20.326-45.4-45.4c0-25.074 20.326-45.4 45.4-45.4s45.4 20.326 45.4 45.4z"/></symbol><symbol id="sprite-wifi" viewBox="0 0 1024 1024"><title/><path d="M915.8 599.2H554.6v-172c0-23.6-19-42.6-42.6-42.6s-42.6 19-42.6 42.6v172H108.2c-59.6 0-108 48.4-108 108V916c0 59.6 48.4 108 108 108h808c59.6 0 108-48.4 108-108V707.2c-.4-59.6-48.8-108-108.4-108zM938.6 916c0 12.6-10.2 22.6-22.6 22.6H108c-12.6 0-22.6-10.2-22.6-22.6V707.2c0-12.6 10.2-22.6 22.6-22.6h808c12.6 0 22.6 10.2 22.6 22.6V916zM303.4 171.6c115-115 302-115 417 0 8.4 8.4 19.2 12.6 30 12.6s22-4.2 30-12.6c16.8-16.8 16.8-43.6 0-60.4C632.2-37 391.2-37 242.8 111.2c-16.8 16.8-16.8 43.6 0 60.4s44 16.6 60.6 0zM383 251c-16.8 16.8-16.8 43.6 0 60.4 8.4 8.4 19.2 12.6 30 12.6s21.8-4.2 30-12.6c37.8-37.8 99.4-37.8 137.2 0 16.8 16.8 43.6 16.8 60.4 0s16.8-43.6 0-60.4c-70.8-71-186.4-71-257.6 0zm157.8 517.8h-57.6c-23.6 0-42.6 19-42.6 42.6s19 42.6 42.6 42.6h57.6c23.6 0 42.6-19 42.6-42.6s-19-42.6-42.6-42.6z"/></symbol></svg>