<!-- Generated by IcoMoon.io -->
<svg version="1.1" xmlns="http://www.w3.org/2000/svg" width="1024" height="1024" viewBox="0 0 1024 1024">
<title></title>
<g id="icomoon-ignore">
</g>
<path d="M494.328 792.859l-487.129-480.73c-4.799-4.799-7.199-10.998-7.199-17.397 0-6.199 2.4-12.598 7.199-17.397l46.793-46.193c4.599-4.599 10.998-7.199 17.597-7.199s12.798 2.6 17.597 7.199l422.738 417.139 422.738-417.139c4.599-4.599 10.998-7.199 17.597-7.199s12.998 2.6 17.597 7.199l46.793 46.193c9.799 9.599 9.799 24.996 0 34.595l-487.129 480.93c-9.599 9.599-25.396 9.599-35.195 0z"></path>
</svg>
