<!-- Generated by IcoMoon.io -->
<svg version="1.1" xmlns="http://www.w3.org/2000/svg" width="1024" height="1024" viewBox="0 0 1024 1024">
<title></title>
<g id="icomoon-ignore">
</g>
<path d="M749 402.8c37.4-21.6 83.8-21.6 121.2 0l83.8 48 0.4-0.6c7.4 6 16.8 9.6 27 9.6 23.6 0 42.6-19 42.6-42.6 0-179-147.2-327-335.8-346.6v-28c0-23.6-19-42.6-42.6-42.6s-42.6 19-42.6 42.6v28c-188.8 19.6-335.8 167.4-335.8 346.6 0 23.6 19 42.6 42.6 42.6 10.4 0 20-3.8 27.4-10l83.2-47.6c37.4-21.6 83.8-21.6 121.4 0l0.8 0.4c19 10.8 39.6 18.6 60.4 23v322.8h-300l-231.6-211c-17.4-15.8-44.4-14.6-60.2 2.8s-14.6 44.4 2.8 60.2l243.8 222.2c8 7.2 18.2 11 28.8 11h106.8l-83.4 124c-13.2 19.6-8 46 11.4 59.2 19.6 13.2 46 8 59.2-11.4l115.6-171.6h107v147.8c0 23.6 19 42.6 42.6 42.6s42.6-19 42.6-42.6v-147.8h87.8l115.6 171.6c13.2 19.4 39.8 24.6 59.2 11.4 19.6-13.2 24.6-39.8 11.4-59.2l-83.4-124h86.6c23.6 0 42.6-19 42.6-42.6s-19-42.6-42.6-42.6h-277.2v-322.8c21-4.2 41.6-12 60.6-22.8zM584.2 327.6c-63.8-36.6-142.8-36.6-206.4 0l-10 5.8c38.8-104.6 148.8-180 278-180 129.6 0 240 76 278.4 181l-11-6.4c-63.8-36.6-142.8-36.6-206.6 0-37.4 21.6-83.8 21.6-121.4 0l-1-0.4z"></path>
</svg>
