<!-- Generated by IcoMoon.io -->
<svg version="1.1" xmlns="http://www.w3.org/2000/svg" width="1024" height="1024" viewBox="0 0 1024 1024">
<title></title>
<g id="icomoon-ignore">
</g>
<path d="M451.6 513.4c0 43.6-32.4 75-77.4 75-44.8 0-77.6-31.4-77.6-75s32.8-75 77.6-75 77.4 31.4 77.4 75zM327.6 513.4c0 28.6 19.4 48.8 46.4 48.8 27.2 0 46.6-20.2 46.6-48.8 0-28.2-19.4-48.8-46.6-48.8-27 0-46.4 20.6-46.4 48.8zM190.4 438.4c-44.8 0-77.6 31.4-77.6 75 0 17 5 32 13.8 44.2h-111.4c-8.6 0-15.4 7-15.4 15.4v15.4h190.6s0 0 0.2 0c44.8 0 77.4-31.4 77.4-75-0.2-43.6-32.6-75-77.6-75zM190.2 562.2c-26.8 0-46.4-20.2-46.4-48.8 0-28.2 19.4-48.8 46.4-48.8 27.2 0 46.6 20.6 46.6 48.8 0 28.6-19.4 48.8-46.6 48.8zM615.4 573v-70.8c0-38-27.6-63.8-68-63.8-40 0-67.4 25.8-67.4 63.8v70.8c0 8.6 7 15.4 15.4 15.4h15.4v-86.2c0-23 14.4-38.4 36.6-38.4s36.6 15.2 36.6 38.4v70.8c0 8.6 7 15.4 15.4 15.4h15.4v-15.4h0.6zM779.2 450.8v-12.4h-15.2c-8.6 0-15.4 7-15.4 15.4v71c0 23-14.8 38-37 38s-36.6-15-36.6-38v-86.4h-15.2c-8.6 0-15.4 6.8-15.4 15.4v71.2c0 37.8 27.4 63.4 67.6 63.4 40 0 67.4-25.8 67.4-63.4v-74.2h-0.2zM966.6 438.4c-23.4 0-41.8 10.4-50.8 27.8-9-17.4-27.4-27.8-50.8-27.8-34.6 0-57 23-57 58v76.4c0 8.6 7 15.4 15.4 15.4h15.4v-92.6c0-19.4 12-32.6 30.6-32.6s31 13.2 31 32.6v77.4c0 8.6 7 15.4 15.4 15.4h15.2v-92.8c0-19.4 12.4-32.6 31-32.6s30.6 13.2 30.6 32.6v77.4c0 8.6 7 15.4 15.4 15.4h15.4v-92c0.2-35-22.4-58-56.8-58z"></path>
</svg>
