<?xml version="1.0" encoding="utf-8"?>
<!-- Generator: Adobe Illustrator 22.0.0, SVG Export Plug-In . SVG Version: 6.00 Build 0)  -->
<svg version="1.1" id="Layer_1" xmlns="http://www.w3.org/2000/svg" xmlns:xlink="http://www.w3.org/1999/xlink" x="0px" y="0px"
	 viewBox="0 0 487 74" style="enable-background:new 0 0 487 74;" xml:space="preserve">
<path d="M215.7,37.5c0,20.7-15.4,35.6-36.6,35.6s-36.7-14.9-36.7-35.6s15.5-35.6,36.7-35.6S215.7,16.8,215.7,37.5z M157,37.5
	c0,13.5,9.2,23.2,21.9,23.2c12.9,0,22.1-9.6,22.1-23.2c0-13.4-9.2-23.2-22.1-23.2C166.3,14.3,157,24.1,157,37.5z"/>
<path d="M92.2,1.9C71,1.9,55.5,16.8,55.5,37.5c0,8,2.4,15.2,6.5,21H9.2c-4,0-7.3,3.3-7.3,7.3v7.3h90.2l0,0c0,0,0,0,0.1,0
	c21.2,0,36.6-14.9,36.6-35.6C128.8,16.8,113.4,1.9,92.2,1.9z M92,60.7c-12.7,0-21.9-9.6-21.9-23.2c0-13.4,9.2-23.2,21.9-23.2
	c12.9,0,22.1,9.8,22.1,23.2C114.1,51.1,104.9,60.7,92,60.7z"/>
<path d="M293.3,65.8L293.3,65.8V32.2c0-18.1-13.1-30.3-32.1-30.3c-18.9,0-31.8,12.2-31.8,30.3v33.6c0,4,3.3,7.3,7.3,7.3l0,0l0,0h7.3
	V32.2c0-10.9,6.8-18.2,17.3-18.2s17.3,7.3,17.3,18.2v33.6c0,4,3.3,7.3,7.3,7.3l0,0h7.3v-7.3H293.3z"/>
<path d="M370.7,7.8V1.9h-7.2c-4,0-7.3,3.3-7.3,7.3l0,0V43c0,10.9-7,18.1-17.5,18.1S321.4,54,321.4,43v-8.4v-24V7.8V1.9h-7.2
	c-4,0-7.3,3.3-7.3,7.3l0,0V43c0,17.9,12.9,30.1,32,30.1c18.9,0,31.8-12.2,31.8-30.1V25.8V10.6L370.7,7.8L370.7,7.8z"/>
<path d="M459.4,1.9c-11.1,0-19.8,5-24,13.2c-4.3-8.2-12.9-13.2-24-13.2c-16.4,0-27,11-27,27.6v36.3c0,4,3.3,7.3,7.3,7.3l0,0h7.3
	v-7.3l0,0l0,0V29c0-9.2,5.7-15.5,14.5-15.5s14.6,6.3,14.6,15.5v36.8l0,0c0,4,3.3,7.3,7.3,7.3l0,0l0,0h7.2V72v-4.8v-2.8V54V29
	c0-9.2,5.8-15.5,14.6-15.5c8.8,0,14.5,6.3,14.5,15.5v36.8l0,0c0,4,3.3,7.3,7.3,7.3l0,0h7.3V29.5C486.4,12.8,475.8,1.9,459.4,1.9z"/>
</svg>
