<svg xmlns="http://www.w3.org/2000/svg" viewBox="0 0 512 512" enable-background="new 0 0 512 512"><path fill="#AFC1E0" d="M230.4 269c-9.1-.1-18.3 0-27.5 0-10.5 0-15.9 5.2-16 15.8-.1 7.7 0 15.4 0 23.1 0 8.1.2 16.1-.1 24.3-.1 3.5 1 4.2 4.3 4.2 13.2-.2 26.4.1 39.6-.1 19.3-.3 31.2-13.6 31.2-34.3-.1-19.4-12.8-32.8-31.5-33z"/><path fill="#fff" d="M274.8 247.2c2.7-2.5 4.8-4.2 6.7-6 24.8-22 27.6-62.7 5.9-87.6-13.5-15.4-31.4-22.1-51.2-23.5-24.4-1.7-48.9-.7-73.3-.5-13.7.1-24.4 12-24.4 26.2 0 72.6 0 145.2-.1 217.8 0 4.3 1.3 5.2 5.3 5.2 28.4-.1 56.7 0 85-.1 9.6-.1 19.1-1.4 28.3-3.9 51.1-14 61.7-58.3 51.1-91.6-5.3-16.7-16.6-28.4-33.3-36zm-87.9-41.7c0-5.9 0-11.8 0-17.6 0-12 5.1-17.2 17-17.3 6.6 0 13.2 0 19.8 0 18 .1 28.7 10.2 29.3 27.9.7 17.9-10 30.6-27.2 31.5-11.9.6-23.9.1-35.8.2-3 0-3.1-1.5-3.1-3.8 0-6.9 0-13.9 0-20.9zm43.8 130.8c-13.2.2-26.4-.1-39.6.1-3.3 0-4.4-.7-4.3-4.2.3-8.2.1-16.2.1-24.3 0-7.7-.1-15.4 0-23.1.1-10.6 5.5-15.8 16-15.8 9.2 0 18.4-.1 27.5 0 18.7.2 31.4 13.6 31.5 33 0 20.7-11.9 34-31.2 34.3z"/><path fill="#AFC1E0" d="M190 230.2c11.9-.1 23.9.4 35.8-.2 17.2-.9 27.9-13.6 27.2-31.5-.6-17.7-11.3-27.8-29.3-27.9-6.6 0-13.2 0-19.8 0-11.9.1-17 5.3-17 17.3 0 5.8 0 11.7 0 17.6 0 7 0 14 0 20.9 0 2.3.1 3.8 3.1 3.8zM420.7 1.8H90.2C40.3 1.8-.6 41.3-.6 91.6v419.2h421.3c50 0 90.8-41.1 90.8-91.4V91.6c0-50.3-40.9-89.8-90.8-89.8zM257 374.8c-9.2 2.5-18.7 3.8-28.3 3.9-28.3.1-56.6 0-85 .1-4 0-5.3-.9-5.3-5.2.1-72.6.1-145.2.1-217.8 0-14.2 10.7-26.1 24.4-26.2 24.4-.2 48.9-1.2 73.3.5 19.8 1.4 37.7 8.1 51.2 23.5 21.7 24.9 18.9 65.6-5.9 87.6-1.9 1.8-4 3.5-6.7 6 16.7 7.6 28 19.3 33.3 36 10.6 33.3 0 77.6-51.1 91.6zm109.6 7c-16.9 0-30.6-13.7-30.6-30.6 0-16.9 13.7-30.6 30.6-30.6 16.9 0 30.6 13.7 30.6 30.6 0 16.9-13.7 30.6-30.6 30.6z"/><ellipse cx="366.6" cy="351.2" fill="#fff" transform="matrix(.973 -.23 .23 .973 -70.882 93.622)" rx="30.6" ry="30.6"/></svg>