<svg xmlns="http://www.w3.org/2000/svg" viewBox="0 0 500 85" enable-background="new 0 0 500 85"><style type="text/css">.st0{fill:#1E3E79;} .st1{fill:#00ADEF;}</style><path d="M204.5 2.7c4.1-1.3 8.9 1.6 9.5 5.9.8 4.1-2.4 8.4-6.6 8.7-3.9.5-7.8-2.5-8.2-6.4-.6-3.6 1.8-7.3 5.3-8.2zM155.2 4.3c2.4 0 4.9 0 7.3 0 1.6 0 3.3.4 4.4 1.6 1.2 1.3 1.4 3.2 1.4 4.9 0 8.5 0 17 0 25.5 1.7-.1 4.1.3 5.1-1.4 3-4.5 5.9-9.1 8.9-13.6 4.9 0 9.8 0 14.7 0-3.9 5.8-7.9 11.6-11.8 17.4-.7 1.1-1.6 2.1-2.5 3.1 1.8 1.8 2.7 4.1 3.9 6.3 3.1 6.2 6.9 12 10.5 17.9-3.9 0-7.8.1-11.7-.1-2.3 0-4.4-1.3-5.5-3.3-2.6-4.6-5-9.4-7.6-14-.8-1.4-2.7-1-4-1.1 0 6.2 0 12.4 0 18.6-4.4 0-8.7 0-13.1 0 0-20.6 0-41.2 0-61.8zM233.5 26.4c2.9-3.3 7-5.5 11.4-5.9 4.7-.4 9.8.2 13.4 3.4 3.3 2.9 4.6 7.3 4.9 11.5.2 10.2-.2 20.4.2 30.6-2.6 0-5.1.1-7.7-.1-1.8-.1-3.6-1-4.5-2.6-1.1-1.9-.9-4.2-.9-6.4 0-6.1 0-12.2 0-18.2-.1-2.3-.6-5.2-3.2-6-3.4-.9-7.2.1-9.7 2.6-2.5 2.4-3.5 6-3.6 9.4 0 7.1 0 14.3 0 21.4-4.3 0-8.6 0-13 0 0-14.9 0-29.8 0-44.6 3.1.2 6.4-.5 9.4.6 1.9.6 2.9 2.5 3.3 4.3z" class="st0"/><path d="M340.1 27.5c6.3-6.3 16.2-8.3 24.7-6 3.3.9 6.7 2.4 8.6 5.5 1.8 3 .9 6.7 1.1 10-2.6-.1-5.1.1-7.7-.1-1.8-.2-3-1.7-3.6-3.3-.4-1.2-1.8-1.6-2.9-2-4.6-1.1-9.8.9-12.3 4.9-2.4 3.8-2.7 9-.8 13.1 1.9 4.1 6.3 6.4 10.7 6.5 5.3.3 10.1-2.6 13.7-6.3 1.8 3 3.6 5.9 5.4 8.9-8.8 10.2-26.3 11.4-36.2 2.2-9.4-8.5-9.6-24.7-.7-33.4zM441.6 27c2.7-3.2 6.4-5.7 10.6-6.3 4.1-.6 8.7.1 11.8 2.9 1.5 1.2 2.4 2.9 3.4 4.5 3-4.2 7.8-7.1 13-7.5 4.6-.4 9.8.6 12.9 4.3 3 3.6 3.6 8.4 3.7 12.9 0 9.4 0 18.8 0 28.2-3.2-.2-6.7.5-9.7-.8-2.4-1.1-2.8-4-2.7-6.3 0-6.9 0-13.7 0-20.6-.1-2.1-.4-4.9-2.7-5.9-2.9-1.2-6.2 0-8.4 2.1-2.8 2.8-4 6.8-4.2 10.7 0 6.9 0 13.9 0 20.8-4.2.1-8.3 0-12.5 0 0-8.8 0-17.5 0-26.3 0-2.2-.2-4.6-1.8-6.3-1.5-1.7-4.1-1.8-6.2-1.2-2.8 1-4.7 3.7-5.8 6.4-1.3 3.1-1.6 6.6-1.6 10 0 5.8 0 11.6 0 17.4-4.1 0-8.1 0-12.2 0 0-14.8 0-29.7 0-44.5 3.2.2 6.6-.6 9.6 1 1.8.9 2.3 2.8 2.8 4.5z" class="st1"/><path d="M200.6 21.4c3.2.2 6.5-.4 9.5.6 2.3.8 3.4 3.3 3.4 5.6 0 12.8 0 25.7 0 38.5-4.3 0-8.6 0-12.8 0 .1-14.9-.1-29.8-.1-44.7zM71.9 21c7.4-1.4 15.6.2 21.3 5.3 9.3 8.2 9.9 23.9 1.6 33-9 9.9-26.8 9.9-35.6-.2-8.5-9.5-7.3-26.3 3.2-34 2.7-2.1 6-3.5 9.5-4.1zm2 10.8c-2.7.8-5 2.8-6.3 5.3-2.8 5.7-1.7 13.9 4.1 17.3 4.5 2.6 11.1 1.4 14-3.1 3.1-4.9 2.9-11.9-.8-16.4-2.6-3.1-7.1-4.2-11-3.1zM121.8 21c6.5-1.3 13.6-.3 19.2 3.4 4.7 3 8 8 9.2 13.4 1.6 7.3.2 15.4-4.9 21.1-8.8 10.2-26.6 10.4-35.7.5-8.1-8.8-7.9-23.9.6-32.3 3.2-3.1 7.3-5.2 11.6-6.1zm2.4 10.8c-3.7 1-6.5 4.3-7.3 7.9-1.3 5.2 0 11.6 4.8 14.6 3.9 2.4 9.3 1.9 12.7-1.2 2.8-2.6 3.8-6.6 3.7-10.3-.1-3.5-1.6-7.1-4.4-9.3-2.7-2-6.3-2.5-9.5-1.7z" class="st0"/><path d="M396.6 20.9c7.4-1.3 15.5.4 21.1 5.6 9.1 8.3 9.7 23.9 1.4 32.9-9 9.8-26.5 9.8-35.4-.1-8.1-8.9-7.7-24.3 1.1-32.6 3.2-3 7.4-5 11.8-5.8zm2 10.8c-2.8.7-5.2 2.7-6.5 5.2-2.6 5.1-2.1 12.1 2.2 16.2 3.9 3.7 10.9 3.5 14.6-.4 2.4-2.5 3.4-6.1 3.3-9.5 0-3.8-1.6-7.8-4.8-10-2.5-1.7-5.8-2.2-8.8-1.5z" class="st1"/><path d="M279.7 21.8c6.6-2.6 14.9-2.1 20.4 2.7.8-1.5 2.1-2.8 3.8-3.1 2.6-.4 5.2-.1 7.8-.2 0 13.7 0 27.4 0 41.1 0 5-1.5 10.1-5 13.9-4.5 4.9-11.3 6.9-17.8 7.1-6.1.1-12.2-1.3-17.5-4.3 1-2.5 1.8-5.1 3.1-7.5.6-1.2 2.1-1.9 3.5-1.6 2.2.4 4.2 1.3 6.4 1.6 3.8.6 8.2.5 11.4-1.9 2.4-1.9 3.2-5.1 3-8-4.1 3.4-9.8 4-14.9 3.1-5.1-.9-9.8-4.1-12.5-8.5-3.7-5.9-4.4-13.2-3-19.9 1.2-6.2 5.2-12.1 11.3-14.5zm6.4 10.5c-2.9 1.1-4.5 4.1-5 7-.7 3.9-.2 8.2 2.2 11.4 3.1 4.2 10.4 4.4 13.6.1 2.1-3 2.2-6.9 2-10.5-.3-3-1.5-6.3-4.3-7.7-2.7-1.2-5.8-1.3-8.5-.3zM7 10.9c-.2-3.5 3-6.6 6.4-6.5 5.3 0 10.5 0 15.8 0 5.2.1 10.7 1.6 14.4 5.4 5.7 5.8 5.3 16.1-.5 21.7-.7.6-1.4 1.2-2.1 1.8 3 1.5 5.8 3.7 7.3 6.7 2.7 5.5 2.4 12.5-1.1 17.6-3.8 5.6-10.8 8-17.4 8.1-7.6 0-15.2 0-22.7 0C7 47.5 7 29.2 7 10.9zm13.2 4.6c-1 .9-1.1 2.4-1.2 3.7 0 3.3 0 6.6 0 9.9 3.2 0 6.5 0 9.7 0 1.9 0 3.9-.9 5.1-2.4 2.3-3.2 2.2-8.4-1.1-10.9-2.3-1.7-5.3-1.2-7.9-1.3-1.6.1-3.4-.2-4.6 1zm.3 23.9c-1.3.8-1.5 2.4-1.5 3.8 0 4 0 8 0 12.1 3.7 0 7.5 0 11.2 0 2.6-.1 5.2-1.4 6.4-3.7 1.8-3.5 1.5-8.4-1.6-11-2.5-2.1-6.1-1.9-9.2-1.9-1.8.1-3.7-.3-5.3.7z" class="st0"/><path d="M322.1 51.9c4.3-1.3 9.2 2.1 9.5 6.6.4 3.9-2.7 7.8-6.7 8.1-3.9.5-7.9-2.6-8.2-6.6-.6-3.6 1.9-7.3 5.4-8.1z" class="st1"/></svg>