<!-- Generated by IcoMoon.io -->
<svg version="1.1" xmlns="http://www.w3.org/2000/svg" width="1024" height="1024" viewBox="0 0 1024 1024">
<title></title>
<g id="icomoon-ignore">
</g>
<path d="M944 512c0 28.4 20.2 53.2 48 58.8 18.6 3.8 32 20.2 32 39.2v102c0 61.4-35.8 118-91.2 144.4-20 9.6-43.8 1-53.4-18.8-9.6-20-1-43.8 18.8-53.4 27.8-13.2 45.8-41.6 45.8-72.2v-73.6c-47.8-22.8-80-71.6-80-126.6 0-54.8 32.2-103.8 80-126.6v-73.2c0-44.2-35.8-80-80-80h-124c0 22-18 40-40 40s-40-18-40-40h-500c-44.2 0-80 35.8-80 80v73.4c47.8 22.8 80 71.6 80 126.6 0 54.8-32.2 103.8-80 126.6v73.4c0 44.2 35.8 80 80 80h500c0-22 18-40 40-40s40 18 40 40v40c0 22-18 40-40 40h-540c-88.2 0-160-71.8-160-160v-102c0-19 13.4-35.4 32-39.2 27.8-5.6 48-30.4 48-58.8s-20.2-53.2-48-58.8c-18.6-3.8-32-20.2-32-39.2v-102c0-88.2 71.8-160 160-160h704c88.2 0 160 71.8 160 160v102c0 19-13.4 35.4-32 39.2-27.8 5.6-48 30.4-48 58.8zM700 332c-22 0-40 18-40 40s18 40 40 40 40-18 40-40-18-40-40-40zM700 472c-22 0-40 18-40 40s18 40 40 40 40-18 40-40-18-40-40-40zM700 612c-22 0-40 18-40 40s18 40 40 40 40-18 40-40-18-40-40-40zM344 392c0-33.2-26.8-60-60-60s-60 26.8-60 60 26.8 60 60 60 60-26.8 60-60zM508 692c33.2 0 60-26.8 60-60s-26.8-60-60-60-60 26.8-60 60 26.8 60 60 60zM259 683.2c7.4 5.8 16.2 8.8 25 8.8 11.8 0 23.4-5.2 31.2-15l224-280c13.8-17.2 11-42.4-6.2-56.2s-42.4-11-56.2 6.2l-224 280c-13.8 17.2-11 42.4 6.2 56.2z"></path>
</svg>
