<!-- Generated by IcoMoon.io -->
<svg version="1.1" xmlns="http://www.w3.org/2000/svg" width="1024" height="1024" viewBox="0 0 1024 1024">
<title></title>
<g id="icomoon-ignore">
</g>
<path d="M647.4 478l58.2 58.2c30.8 30.8 72 48 115.6 48h162.8c22 0 40-18 40-40v-12.2c0-38.2-7.2-75.4-21.6-110.8l-95-233.4c-24.6-60.6-82.8-99.8-148.2-99.8h-599.2c-42.8 0-82.8 16.6-113.2 46.8-30 30.4-46.6 70.6-46.6 113.2v446c0 87.2 70 158.2 156.8 159.8 16.4 46.6 61 80 113.2 80s96.6-33.4 113-80h247.8c16.6 46.6 61 80 113 80 52.2 0 96.6-33.4 113-80h6.8c76 0 141.8-54 156.8-128.2 4.4-21.6-9.6-42.8-31.4-47-21.6-4.4-42.8 9.6-47 31.4-7.4 37.2-40.4 64-78.4 64h-6.8c-16.6-46.6-61-80-113-80-52.2 0-96.6 33.4-113 80h-247.8c-16.6-46.6-61-80-113-80-52.2 0-96.6 33.4-113 80-42.6-1.6-76.8-36.8-76.8-80v-216h567zM623.8 398h-121.8v-229.8h121.8v229.8zM422 398h-130v-230h130v230zM833.2 218l94.8 233.2c7 17 11.6 34.6 14 52.8h-121c-22.4 0-43.4-8.6-59.2-24.4l-58.2-58.2v-253.2h55.4c32.8 0 62 19.4 74.2 49.8zM80 248c0-21.4 8.4-41.4 23.4-56.6 15.2-15 35.4-23.4 56.6-23.4h52v230h-132v-150zM744 774.2c22 0 40 18 40 40s-18 40-40 40-40-18-40-40c0-22.2 17.8-40 40-40zM270 774.2c22 0 40 18 40 40s-18 40-40 40-40-18-40-40c0-22.2 18-40 40-40z"></path>
</svg>
