<!-- Generated by IcoMoon.io -->
<svg version="1.1" xmlns="http://www.w3.org/2000/svg" width="1024" height="1024" viewBox="0 0 1024 1024">
<title></title>
<g id="icomoon-ignore">
</g>
<path d="M984 120.32h-197v-40.32c0-22.1-17.88-40-40-40s-40 17.9-40 40v40.32h-390v-40.32c0-22.1-17.92-40-40-40s-40 17.9-40 40v40.32h-197c-22.1 0-40 17.92-40 40v783.68c0 22.080 17.9 40 40 40h944c22.1 0 40-17.92 40-40v-783.68c0-22.080-17.9-40-40-40zM944 904h-864v-703.68h157v40.34c0 22.080 17.88 40 40 40s40-17.92 40-40v-40.34h390v40.34c0 22.080 17.92 40 40 40s40-17.92 40-40v-40.34h157v703.68z"></path>
<path d="M566 469.9c0 29.823-24.177 54-54 54s-54-24.177-54-54c0-29.823 24.177-54 54-54s54 24.177 54 54z"></path>
<path d="M566 704.92c0 29.823-24.177 54-54 54s-54-24.177-54-54c0-29.823 24.177-54 54-54s54 24.177 54 54z"></path>
<path d="M330.98 469.9c0 29.823-24.177 54-54 54s-54-24.177-54-54c0-29.823 24.177-54 54-54s54 24.177 54 54z"></path>
<path d="M801.020 469.9c0 29.823-24.177 54-54 54s-54-24.177-54-54c0-29.823 24.177-54 54-54s54 24.177 54 54z"></path>
<path d="M330.98 704.92c0 29.823-24.177 54-54 54s-54-24.177-54-54c0-29.823 24.177-54 54-54s54 24.177 54 54z"></path>
<path d="M801.020 704.92c0 29.823-24.177 54-54 54s-54-24.177-54-54c0-29.823 24.177-54 54-54s54 24.177 54 54z"></path>
</svg>
