<!-- Generated by IcoMoon.io -->
<svg version="1.1" xmlns="http://www.w3.org/2000/svg" width="1024" height="1024" viewBox="0 0 1024 1024">
<title></title>
<g id="icomoon-ignore">
</g>
<path d="M327.4 583.2c18.2-18.2 47.6-18.2 65.6 0l94.2 94.2 190-190-94.2-94.2c-8.8-8.8-13.6-20.6-13.6-32.8 0-12.4 4.8-24.2 13.6-32.8l190-190c18.2-18.2 47.6-18.2 65.6 0l127 127c58 58 71.8 150.2 38.6 259.4-30.2 99.2-96.4 203.6-186.6 293.8-126 126-280.6 204.2-403.4 204.2-61.4 0-113.2-19.4-150-56.2-1.8-1.8-127-127-127-127-8.8-8.8-13.6-20.6-13.6-32.8 0-12.4 4.8-24.2 13.6-32.8l190.2-190zM330.2 900.2c19.2 19.2 47.6 29 84.2 29 97.6 0 230-69.4 337.6-177 79.6-79.6 137.6-170.2 163.4-255.2 22.4-73.8 16.8-134.6-15.2-166.8l-94-94-124.4 124.4 94.2 94.2c8.8 8.8 13.6 20.6 13.6 32.8s-4.8 24.2-13.6 32.8l-255.8 255.6c-18.2 18.2-47.6 18.2-65.6 0l-94.2-94.2-124.4 124.2c37.2 37.2 92.8 93 94.2 94.2zM145.2 145.2c93.8-93.6 218.2-145.2 350.8-145.2 25.6 0 46.4 20.8 46.4 46.4s-20.8 46.4-46.4 46.4c-107.6 0-208.8 42-285 118-76.2 76.2-118 177.4-118 285 0 25.6-20.8 46.4-46.4 46.4-25.8 0.2-46.6-20.6-46.6-46.2 0-132.6 51.6-257 145.2-350.8zM272.6 496c0 25.6-20.8 46.4-46.4 46.4s-46.4-20.8-46.4-46.4c0-174.4 141.8-316.2 316.2-316.2 25.6 0 46.4 20.8 46.4 46.4s-20.8 46.4-46.4 46.4c-123.2 0.2-223.4 100.2-223.4 223.4z"></path>
</svg>
