<!-- Generated by IcoMoon.io -->
<svg version="1.1" xmlns="http://www.w3.org/2000/svg" width="1024" height="1024" viewBox="0 0 1024 1024">
<title></title>
<g id="icomoon-ignore">
</g>
<path d="M937 374.2l16-16c13.6-13.6 13.6-35.6 0-49.2s-35.6-13.6-49 0l-16.4 16.4-31.4-125.4c-11.2-45-56.4-80.2-102.6-80.2h-485.6c-46.4 0-91.4 35.2-102.6 80.2l-31.4 125.4-16.4-16.4c-13.6-13.6-35.6-13.6-49 0-13.6 13.6-13.6 35.6 0 49.2l16 16c-50.8 24.8-85.8 77-85.8 137.4v122c0 49.2 23.4 93 59.6 121v60.8c0 49.8 40.4 90.4 90.2 90.4h68c49.8 0 90.2-40.6 90.2-90.4v-29h407.8v29c0 49.8 40.4 90.4 90.2 90.4h68c49.8 0 90.2-40.6 90.2-90.4v-60.8c36.2-28 59.6-71.8 59.6-121v-122c0.2-60.4-34.8-112.6-85.6-137.4zM200 348l32.8-131c3.6-14.2 20.8-27.6 35.4-27.6h485.6c14.6 0 31.8 13.4 35.4 27.6l32.8 131c1 3.6 0.8 6.8-0.4 8.2-1.2 1.6-4.2 2.4-8 2.4h-605.2c-3.8 0-6.6-1-8-2.4-1.2-1.6-1.4-4.6-0.4-8.2zM68.2 511.6c0-46 37.4-83.4 83.4-83.4h718.4c46 0 83.4 37.4 83.4 83.4v122c0 46-37.4 83.4-83.4 83.4h-718.6c-46 0-83.4-37.4-83.4-83.4v-122zM237.4 815.6c0 11.4-9.6 20.8-20.8 20.8h-68c-11.2 0-20.8-9.6-20.8-20.8v-31c7.8 1.2 15.6 1.8 23.6 1.8h86v29.2zM893.6 815.6c0 11.4-9.6 20.8-20.8 20.8h-68c-11.2 0-20.8-9.6-20.8-20.8v-29h86c8 0 16-0.6 23.6-1.8v30.8zM391.4 607.2h238.6c19.2 0 34.8-15.6 34.8-34.8s-15.6-34.8-34.8-34.8h-238.6c-19.2 0-34.8 15.6-34.8 34.8 0.2 19.4 15.6 34.8 34.8 34.8zM212.4 667c52 0 94.4-42.4 94.4-94.4s-42.4-94.4-94.4-94.4c-52 0-94.4 42.4-94.4 94.4s42.4 94.4 94.4 94.4zM212.4 547.6c13.8 0 25 11.2 25 25s-11.2 25-25 25-25-11.2-25-25 11.2-25 25-25zM809 667c52 0 94.4-42.4 94.4-94.4s-42.4-94.4-94.4-94.4c-52 0-94.4 42.4-94.4 94.4s42.4 94.4 94.4 94.4zM809 547.6c13.8 0 25 11.2 25 25s-11.2 25-25 25-25-11.2-25-25 11.4-25 25-25z"></path>
</svg>
