<!-- Generated by IcoMoon.io -->
<svg version="1.1" xmlns="http://www.w3.org/2000/svg" width="1024" height="1024" viewBox="0 0 1024 1024">
<title></title>
<g id="icomoon-ignore">
</g>
<path d="M475.8 456.8c14-14 14-37 0-51s-36.6-14-50.6 0l-189.2 191c-32.2 32.6-49.6 74.8-49.6 120.6s17.4 88 49.6 120.6c66.2 67 173.4 67 238.8 0l427.2-431.6c44.4-45 68.8-104.8 68.8-168.2s-24.4-123.4-68.8-168.2c-92.4-93.4-241.4-93.4-333.8 0l-426.2 430.8c-57.6 58.2-89 134.8-89 216.6s31.4 159.4 89 216.8c57.6 58.2 133.4 89.8 214.4 89.8s157.8-31.8 214.4-89.8l189.2-191.2c14-14 14-37 0-51s-36.6-14-50.6 0l-189.2 191.2c-43.6 44-102 68.8-164 68.8s-120.4-24.6-164-68.8c-43.6-44-68-103-68-165.6s24.4-121.6 68-165.6l426.6-430.8c31.4-31.8 72.4-48.4 116-48.4s85.4 17.6 116 48.4c31.4 31.8 48 73.2 48 117.2s-17.4 86.4-48 117.2l-427.2 431.4c-37.4 37.8-99.4 37.8-137.8 0-18.4-18.4-28.8-43.2-28.8-69.6s10.4-51 28.8-69.6l190-191z"></path>
</svg>
