<!-- Generated by IcoMoon.io -->
<svg version="1.1" xmlns="http://www.w3.org/2000/svg" width="1024" height="1024" viewBox="0 0 1024 1024">
<title></title>
<g id="icomoon-ignore">
</g>
<path d="M1024 143.8l-143.8-143.8-335.4 335.4-382.2 152.4c-9.4 4.4-25.6 13.6-27.4 14.6l-0.8 0.4c-19 11.6-36.6 25.4-52.2 41.2-109.6 109.6-109.6 288 0 397.8 54.8 54.8 126.8 82.2 198.8 82.2s144-27.4 198.8-82.2c15.8-15.8 37.8-47.2 40.2-50.8l0.8-1 0.6-1.2c1-1.8 10.2-18 14.6-27.4l152.4-382.2 335.6-335.4zM603.6 361.4l185-185 59 59-185 185-59-59zM939.2 143.8l-49.2 49.2-59-59 49.2-49.2 59 59zM124.6 586.4c12.4-12.4 26-23.2 40.8-32.2 5.8-3.4 16.2-9.2 21.8-11.8l366.6-146.2 2.8 2.8-304.2 215.4c-45.6 32.2-86 73.8-116.6 120.2-23.4 35.2-40.8 72.8-51.2 110.4-43-83.6-29.8-188.8 40-258.6zM538.4 485.6l-177.6 251.2c-56 79.2-141.6 136.6-224.2 150.6 14-82.6 71.6-168.2 150.6-224.2l251.2-177.6zM481.4 836.8c-2.6 5.2-8 15-11.4 21-6.4 9.2-22.8 31.8-32.6 41.6-69.8 69.8-175 83.2-258.4 40 37.4-10.4 75-27.8 110.2-51.2 46.4-30.6 87.8-71 120.2-116.6l215-304.2 2.8 2.8-145.8 366.6z"></path>
</svg>
