<!-- Generated by IcoMoon.io -->
<svg version="1.1" xmlns="http://www.w3.org/2000/svg" width="1024" height="1024" viewBox="0 0 1024 1024">
<title></title>
<g id="icomoon-ignore">
</g>
<path d="M740.6 1.2h-458.8c-155.8 0-282.6 126.8-282.6 282.6v458.8c0 155.8 126.8 282.6 282.6 282.6h458.8c155.8 0 282.6-126.8 282.6-282.6v-458.8c0-155.8-126.8-282.6-282.6-282.6zM932.4 742.6c0 105.8-86 191.8-191.8 191.8h-458.8c-105.8 0-191.8-86-191.8-191.8v-458.8c0-105.8 86-191.8 191.8-191.8h458.8c105.8 0 191.8 86 191.8 191.8v458.8zM511.2 249.4c-145.6 0-263.8 118.4-263.8 263.8 0 145.6 118.4 263.8 263.8 263.8s263.8-118.4 263.8-263.8c0.2-145.4-118.2-263.8-263.8-263.8zM511.2 686.2c-95.4 0-173-77.6-173-173s77.6-173 173-173 173 77.6 173 173-77.6 173-173 173zM786.2 172.4c-17.6 0-34.6 7-47 19.4s-19.6 29.6-19.6 47.2 7.2 34.6 19.6 47.2c12.4 12.4 29.6 19.4 47 19.4 17.6 0 34.6-7.2 47.2-19.4 12.4-12.4 19.6-29.6 19.6-47.2s-7-34.8-19.6-47.2c-12.4-12.4-29.6-19.4-47.2-19.4z"></path>
</svg>
