<!-- Generated by IcoMoon.io -->
<svg version="1.1" xmlns="http://www.w3.org/2000/svg" width="1024" height="1024" viewBox="0 0 1024 1024">
<title></title>
<g id="icomoon-ignore">
</g>
<path d="M917.2 106.4c-68.6-68.6-159.8-106.4-256.8-106.4-97.2 0-188.4 37.8-257 106.4-48.8 48.8-82.6 110.2-97.6 177.4-12.8 57.4-11.6 116.8 3.6 173.4l-298.8 298.6c-7.4 7.4-11.4 17.4-11.2 28l5 198.2c0.4 20.4 16.8 36.8 37.2 37.2l198.2 4.8c0.4 0 0.6 0 1 0 10.2 0 19.8-4 27-11.2l298.6-298.6c30.6 8.2 62 12.2 94 12.2 97 0 188.2-37.8 256.8-106.4 141.8-141.6 141.8-372 0-513.6zM863.2 566.2c-54.2 54.2-126.2 84-202.8 84-31.6 0-62.8-5.2-92.6-15.2-13.8-4.6-29-1.2-39.4 9.2l-66 66-18-18c-15-15-39.2-15-54 0-15 15-15 39 0 54l18 18-73.6 73.6-18-18c-15-15-39.2-15-54 0-15 15-15 39.2 0 54l18 18-55.4 55.4-145.4-3.6-3.6-145.4 303.2-303.2c10.2-10.2 13.8-25.6 9.2-39.2-35.4-104.4-9-217.4 68.8-295.4 54.2-54.2 126.2-84 202.8-84 63.8 0 124.4 20.6 174 58.8l-110.2 110.2c-18.2-9.6-38.6-14.8-59.8-14.8-34.4 0-66.6 13.4-90.8 37.6-50.2 50-50.2 131.6 0 181.8 24.2 24.2 56.6 37.6 90.8 37.6 34.4 0 66.6-13.4 90.8-37.6s37.6-56.6 37.6-90.8c0-21.2-5.2-41.6-14.8-59.8l110-110c86.2 112.2 78 274-24.8 376.8zM701.2 322.4c9.8 9.8 15.2 23 15.2 36.8 0 14-5.4 27-15.2 36.8s-23 15.2-36.8 15.2c-14 0-27-5.4-36.8-15.2-20.4-20.2-20.4-53.4 0-73.6 9.8-9.8 23-15.2 36.8-15.2 14-0.2 27 5.2 36.8 15.2z"></path>
</svg>
