<!-- Generated by IcoMoon.io -->
<svg version="1.1" xmlns="http://www.w3.org/2000/svg" width="1024" height="1024" viewBox="0 0 1024 1024">
<title></title>
<g id="icomoon-ignore">
</g>
<path d="M981.2 116.8h-939.4c-22.4 0-42.2 17.6-42.2 42v708c0 22.2 17.8 42.2 42.2 42.2h939.6c24.4 0 42.2-19.8 42.2-42.2v-708c-0.2-22.2-18-42-42.4-42zM83.8 260.4l248.2 247.8-248.2 247.8v-495.6zM511.4 568l-365.6-365h731.2l-365.6 365zM391.8 568l88.6 88.4c18.6 18.6 43.6 18.4 62 0l87.6-87.4 253.6 253.2h-746.6l254.8-254.2zM690 509.4l249.2-248.8v497.6l-249.2-248.8z"></path>
</svg>
