<!-- Generated by IcoMoon.io -->
<svg version="1.1" xmlns="http://www.w3.org/2000/svg" width="1024" height="1024" viewBox="0 0 1024 1024">
<title></title>
<g id="icomoon-ignore">
</g>
<path d="M481.2 909.2c-33-33-323.2-329.6-323.2-529.6 0-208.8 158.2-380.2 354-380.2s354 171.4 354 380.2c0 197.6-290.2 494.4-323.2 529.6-8.8 8.8-37 24.6-61.6 0zM512 85.2c-147.4 0-268.2 131.8-268.2 296.8 0 123 173.8 334 268.2 437.2 96.8-103.2 268.2-312 268.2-437.2 0-165-120.8-296.8-268.2-296.8zM512 513.8c-88 0-160.6-72.6-160.6-160.4 0-88 72.6-160.6 160.6-160.6s160.6 72.6 160.6 160.6c0 87.8-72.6 160.4-160.6 160.4zM512 276.6c-41.8 0-77 35.2-77 77s35.2 76.8 77 76.8 77-35.2 77-76.8c0-44.2-35.2-77-77-77zM723 1023.6h-422c-24.2 0-41.8-19.8-41.8-41.8s19.8-41.8 41.8-41.8h424.2c24.2 0 41.8 19.8 41.8 41.8 0 21.8-19.8 41.8-44 41.8z"></path>
</svg>
