<!-- Generated by IcoMoon.io -->
<svg version="1.1" xmlns="http://www.w3.org/2000/svg" width="1024" height="1024" viewBox="0 0 1024 1024">
<title></title>
<g id="icomoon-ignore">
</g>
<path d="M0 856h1024v60.8h-1024zM1002.6 186.6c-21.2-36.8-55.4-63-96.4-74s-83.8-5.4-120.6 15.8l-300.2 173.4-216.8-108.2-124 71.6 134.8 155.6-79 45.6-94.4-74-106 61.2 55.6 96.4 90 155.8 382.4-61.6 416.6-240.6c75.8-43.8 102-141.2 58-217zM239 280.8l31.8-18.4 272.4 136-134.8 77.8-169.4-195.4zM108.2 519.4l-25.2-43.6 17.8-10.4 42.8 33.4-12.6 7.2-22.8 13.4zM914.2 351l-407 234.8-330 53-38.6-66.8 181.6-104.8 75.2 86.8 276.2-159.4-121-60.4 265.4-153c22.6-13 49.2-16.6 74.4-9.8 25.4 6.8 46.4 23 59.6 45.6 27 46.8 11 107-35.8 134zM674 323l57-33 30.4 52.6-57 33-30.4-52.6zM772.4 266.2l57-33 30.4 52.6-57 33-30.4-52.6z"></path>
</svg>
