<!-- Generated by IcoMoon.io -->
<svg version="1.1" xmlns="http://www.w3.org/2000/svg" width="1024" height="1024" viewBox="0 0 1024 1024">
<title></title>
<g id="icomoon-ignore">
</g>
<path d="M1024 120v420c0 66.2-53.8 120-120 120h-68v-80h68c22 0 40-18 40-40v-214h-106v40h-80v-160h80v40h106v-126c0-22-18-40-40-40h-324v166h40v80h-160v-80h40v-166h-110v-80h514c66.2 0 120 53.8 120 120zM580 464h-80v440c0 22-18 40-40 40h-66v80h66c66.2 0 120-53.8 120-120v-244h114v-80h-114v-116zM282 506h-202v-386c0-22 18-40 40-40h70v-80h-70c-66.2 0-120 53.8-120 120v784c0 66.2 53.8 120 120 120h72v-80h-72c-22 0-40-18-40-40v-318h202v38h80v-160h-80v42z"></path>
</svg>
