<!-- Generated by IcoMoon.io -->
<svg version="1.1" xmlns="http://www.w3.org/2000/svg" width="1024" height="1024" viewBox="0 0 1024 1024">
<title></title>
<g id="icomoon-ignore">
</g>
<path d="M512 0c-198.6 0-360 164.2-360 366.2v291.6c0 202 161.4 366.2 360 366.2 198.4 0 360-163.8 360-365v-292.8c0-202-161.6-366.2-360-366.2zM804.2 659c0 164-131.2 297.2-292.2 297.2-161.2 0-292.2-133.8-292.2-298.4v-291.6c0-164.6 131.2-298.4 292.2-298.4 161.2 0 292.2 133.8 292.2 298.4v292.8zM512 280.2c-18.6 0-33.8 15.2-33.8 34v118.6c0 18.8 15.2 34 33.8 34s33.8-15.2 33.8-34v-118.6c0-18.8-15.2-34-33.8-34z"></path>
</svg>
