<!-- Generated by IcoMoon.io -->
<svg version="1.1" xmlns="http://www.w3.org/2000/svg" width="1024" height="1024" viewBox="0 0 1024 1024">
<title></title>
<g id="icomoon-ignore">
</g>
<path d="M944 420v-254c0-91.6-74.4-166-166-166s-166 74.4-166 166h80c0-47.4 38.6-86 86-86s86 38.6 86 86v254h-175.4c2.2-4.8 3.4-10.2 3.4-16 0-22-18-40-40-40s-40 18-40 40c0 5.8 1.2 11.2 3.4 16h-615.4v92c0 224.6 139 351.4 256.4 403.6-26.2 28.4-42.4 66.6-42.4 108.4h80c0-44.2 35.8-80 80-80h276c44.2 0 80 35.8 80 80h80c0-41.8-16.2-80-42.4-108.4 117.4-52.2 256.4-179 256.4-403.6v-92h-80zM944 512c0 140.2-64.8 225.8-119 273-66.4 57.6-140 79-171 79h-284c-31 0-104.6-21.4-171-79-54.4-47.2-119-132.8-119-273v-12h864v12zM652 224c22 0 40 18 40 40s-18 40-40 40-40-18-40-40c0-22.2 18-40 40-40z"></path>
</svg>
