<!-- Generated by IcoMoon.io -->
<svg version="1.1" xmlns="http://www.w3.org/2000/svg" width="1024" height="1024" viewBox="0 0 1024 1024">
<title></title>
<g id="icomoon-ignore">
</g>
<path d="M66.8 990.6c0 18.4-15 33.4-33.4 33.4s-33.4-15-33.4-33.4 15-33.4 33.4-33.4 33.4 15 33.4 33.4zM189.2 734.6c-55.2 0-100.2 45-100.2 100.2s45 100.2 100.2 100.2 100.2-45 100.2-100.2-45-100.2-100.2-100.2zM189.2 868.2c-18.4 0-33.4-15-33.4-33.4s15-33.4 33.4-33.4 33.4 15 33.4 33.4-15 33.4-33.4 33.4zM712.4 345h-53l76.6-76.6c21-21 6.2-57-23.6-57h-133.6c-18.4 0-33.4 15-33.4 33.4s15 33.4 33.4 33.4h53l-76.6 76.6c-21 21-6.2 57 23.6 57h133.6c18.4 0 33.4-15 33.4-33.4s-15-33.4-33.4-33.4zM445.2 411.8h-53l76.6-76.6c21-21 6.2-57-23.6-57h-133.6c-18.4 0-33.4 15-33.4 33.4s15 33.4 33.4 33.4h53l-76.6 76.6c-21 21-6.2 57 23.6 57h133.6c18.4 0 33.4-15 33.4-33.4s-15-33.4-33.4-33.4zM885.8 204.8c-23.2-100-128.2-162.2-228.8-129.4-33-46.6-87-75.4-145-75.4s-112 28.8-145 75.6c-100.8-32.8-205.8 29.4-228.8 129.2-79.4 18.4-138.2 90-138.2 173.6s58.8 155.2 138.2 173.6c23.2 100 128 162.2 228.8 129.4 33 46.6 87 75.4 145 75.4s112-28.8 145-75.6c100.8 32.8 205.8-29.4 228.8-129.4 79.2-18.4 138.2-90 138.2-173.6s-58.8-155-138.2-173.4zM854.2 489.4c-16.6 1.2-29.6 14.4-30.8 30.8-5.8 79.8-93.2 128.4-164.4 89.4-17-9.4-38.4-2.2-46.4 15.4-18 39.4-57.6 65-100.6 65s-82.6-25.6-100.6-65c-8-17.6-29.4-24.6-46.4-15.4-71 38.8-158.4-9.6-164.4-89.4-1.2-16.4-14.4-29.6-30.8-30.8-57.8-4.2-103-53-103-111s45.2-106.8 103-111c16.4-1.2 29.6-14.4 30.8-30.8 5.8-79.8 93.2-128.4 164.4-89.4 17 9.4 38.4 2.2 46.4-15.4 18-39.4 57.6-65 100.6-65s82.6 25.6 100.6 65c8 17.6 29.4 24.6 46.4 15.4 71-38.8 158.4 9.6 164.4 89.4 1.2 16.6 14.4 29.6 30.8 30.8 57.8 4.2 103 53 103 111s-45.2 106.8-103 111z"></path>
</svg>
