<!-- Generated by IcoMoon.io -->
<svg version="1.1" xmlns="http://www.w3.org/2000/svg" width="1024" height="1024" viewBox="0 0 1024 1024">
<title></title>
<g id="icomoon-ignore">
</g>
<path d="M797.8 1025.4h107.6l-176.4-196h51.4c66 0 119.8-53.8 119.8-120v-446c0-110.2-89.6-200-199.6-200h-84.8c-20.4-37-59.8-62-104.8-62s-84.4 25-104.8 62h-88.8c-110 0-199.6 89.8-199.6 200v446c0 66.2 53.8 120 119.8 120h54.4l-176.4 196h107.4l50.4-56h474.2l50.2 56zM820.2 263.4v184h-269.6v-213c39.8-14.2 70-48.8 77.8-91.2h72c66 0.2 119.8 54 119.8 120.2zM510.8 81.4c22 0 40 18 40 40s-18 40-40 40-40-18-40-40 18-40 40-40zM317.2 143.4h76c7.8 42.4 38 77 77.8 91.2v212.8h-273.6v-184c0-66.2 53.8-120 119.8-120zM197.4 709.4v-182h622.8v182c0 22-18 40-40 40h-542.8c-22.2 0-40-18-40-40zM345.2 889.4l54-60h222.2l54 60h-330.2zM337 649.4c0 22-17.8 40-40 40-22 0-40-18-40-40s17.8-40 40-40 40 17.8 40 40zM758.2 649.4c0 22-17.8 40-40 40-22 0-40-18-40-40s17.8-40 40-40 40 17.8 40 40z"></path>
</svg>
