<!-- Generated by IcoMoon.io -->
<svg version="1.1" xmlns="http://www.w3.org/2000/svg" width="1024" height="1024" viewBox="0 0 1024 1024">
<title></title>
<g id="icomoon-ignore">
</g>
<path d="M270.2 413.2c-78.4 0-142.2 63.8-142.2 142.2s63.8 142.2 142.2 142.2 142.2-63.8 142.2-142.2c0-78.4-63.8-142.2-142.2-142.2zM270.2 637.8c-45.4 0-82.4-37-82.4-82.4s37-82.4 82.4-82.4c45.4 0 82.4 37 82.4 82.4 0 45.6-37 82.4-82.4 82.4zM750.6 413.2c-78.4 0-142.2 63.8-142.2 142.2s63.8 142.2 142.2 142.2c78.4 0 142.2-63.8 142.2-142.2s-63.8-142.2-142.2-142.2zM750.6 637.8c-45.4 0-82.4-37-82.4-82.4s37-82.4 82.4-82.4c45.4 0 82.4 37 82.4 82.4 0 45.6-37 82.4-82.4 82.4zM1024 285.4h-229c-68.2-66.2-173.4-105.4-284.6-105.4-106.8 0-214.4 40.2-284.6 105.4h-224l61 97c-39.2 47-62.8 107.2-62.8 173 0 149 121.2 270.2 270.2 270.2 77 0 146.6-32.4 195.8-84.2l44.4 102.4 44.4-102.4c49.2 51.8 118.8 84.2 195.8 84.2 149 0 270.2-121.2 270.2-270.2 0-64-22.4-123-60-169.4l63.2-100.6zM702.6 289.6c-83.8 15-154.4 69-192.2 142.4-37.6-72.8-107.4-126.6-190.4-142 54.8-31.8 122.6-50.2 190.4-50.2 71 0 138.6 18 192.2 49.8zM270.2 765.8c-116 0-210.2-94.4-210.2-210.4s94.4-210.2 210.2-210.2c116 0 210.2 94.4 210.2 210.2 0 116-94.4 210.4-210.2 210.4zM750.6 765.8c-116 0-210.4-94.4-210.4-210.4s94.4-210.2 210.4-210.2 210.2 94.4 210.2 210.2c0 116-94.4 210.4-210.2 210.4zM270.2 524.2c-17.2 0-31.4 14-31.4 31.4 0 17.2 14 31.4 31.4 31.4 17.2 0 31.4-14 31.4-31.4-0.2-17.4-14.2-31.4-31.4-31.4zM752 524.2c-17.2 0-31.4 14-31.4 31.4 0 17.2 14 31.4 31.4 31.4 17.2 0 31.4-14 31.4-31.4-0.2-17.4-14.2-31.4-31.4-31.4z"></path>
</svg>
