<!-- Generated by IcoMoon.io -->
<svg version="1.1" xmlns="http://www.w3.org/2000/svg" width="1024" height="1024" viewBox="0 0 1024 1024">
<title></title>
<g id="icomoon-ignore">
</g>
<path d="M981.4 185.8h-483.8l106.2-113.8c16-17.4 15-44.4-2-60.4s-44.4-15-60.4 2l-135.8 145.8-136-145.8c-16-17.4-43-18.2-60.4-2-17.2 16-18.2 43-2 60.4l106.2 113.8h-270.8c-23.6 0-42.6 19-42.6 42.6v681.8c0 23.6 19 42.6 42.6 42.6h88v28.4c0 23.6 19 42.6 42.6 42.6s42.6-19 42.6-42.6v-28.4h592.2v28.4c0 23.6 19 42.6 42.6 42.6s42.6-19 42.6-42.6v-28.4h88c23.6 0 42.6-19 42.6-42.6v-681.8c0.4-23.6-18.8-42.6-42.4-42.6zM938.8 867.6h-853.6v-596.6h853.4v596.6h0.2zM801 503.4c23.6 0 42.6-19 42.6-42.6v-61.6c0-23.6-19-42.6-42.6-42.6s-42.6 19-42.6 42.6v61.4c0 23.6 19 42.8 42.6 42.8z"></path>
<path d="M845.8 732.2c0 24.742-20.058 44.8-44.8 44.8s-44.8-20.058-44.8-44.8c0-24.742 20.058-44.8 44.8-44.8s44.8 20.058 44.8 44.8z"></path>
</svg>
