<!-- Generated by IcoMoon.io -->
<svg version="1.1" xmlns="http://www.w3.org/2000/svg" width="1024" height="1024" viewBox="0 0 1024 1024">
<title></title>
<g id="icomoon-ignore">
</g>
<path d="M443 334c-18.4 0-33.4 15-33.4 33.4v356.2c0 18.4 15 33.4 33.4 33.4s33-15 33-33.6v-356c0-18.6-14.6-33.4-33-33.4zM576.2 334c-18.4 0-33.4 15-33.4 33.4v356.2c0 18.4 15 33.4 33.4 33.4s33.2-15 33.2-33.4v-356.2c0-18.6-14.6-33.4-33.2-33.4zM938.2 140.4c-19.2-77.4-84.8-132.6-160.6-140.4-4.4 0-5.6 0-5.6 0-22.6 0-126.2 0-527.8 0-76.4 7-143 62.4-162.6 140.4-22.4 89.6 24 164.4 93.8 189.6 35.2 12.8 71 10.8 101-4.2v503.6c-38.8 13.8-66.6 50.8-66.6 94.4v66.8c0 18.4 15 33.4 33.4 33.4h533.2c18.4 0 33.2-15 33.2-33.4v-66.8c0-43.6-27.8-80.6-66.6-94.4v-504c29.8 15.2 66.2 17.6 102.4 4.6 68.8-25.2 115.4-99.2 92.8-189.6zM743 923.8v33.4h-466.8v-33.4c0-18.4 15.2-33.4 33.6-33.4h400c18.2 0 33.2 15 33.2 33.4zM342.8 823.6v-556.4h333.4v556.6h-333.4zM822.4 267c-25 9-57.6 6.6-74-27.6-4.4-9-5.2-18-2.4-24.2 3.6-7.8 13.8-11.8 21.6-13.8 17.8-4.4 28.8-22.6 24.2-40.4-4.4-17.8-22.6-28.8-40.4-24.4-39.6 10-57.6 32.8-65.8 50.2-2 4.4-3.6 8.8-4.8 13.4h-341.6c-1.2-4.6-2.8-9-4.8-13.4-8.2-17.4-26.2-40.2-65.8-50.2-17.8-4.4-36 6.4-40.4 24.4-4.4 17.8 6.4 36 24.2 40.4 7.8 2 18 6 21.6 13.8 2.8 6.2 2 15.2-2.4 24.2-16.4 34.2-48.8 36.6-73.6 27.8-36.2-13.2-66.2-52.4-51.6-110.6 12-48.2 52-83 98.6-89.4l2.4-0.4c0.4 0 526.2 0 526.6 0l6.4 1c44.2 8.4 81.6 42.4 93.2 88.8 14.6 58.2-15.2 97.4-51.2 110.4z"></path>
</svg>
