<!-- Generated by IcoMoon.io -->
<svg version="1.1" xmlns="http://www.w3.org/2000/svg" width="1024" height="1024" viewBox="0 0 1024 1024">
<title></title>
<g id="icomoon-ignore">
</g>
<path d="M947 421.8c-36.2 63.6-122.4 86.2-185.8 49.8-22.6-13.6-36.2-27.2-49.8-49.8-18.2-27.2-63.4-27.2-81.6 0-36.2 63.6-122.4 86.2-185.8 49.8-22.6-13.6-36.2-27.2-49.8-49.8-18.2-27.2-63.4-27.2-81.6 0-36.2 63.6-122.4 86.2-185.8 49.8-22.6-13.6-36.2-27.2-49.8-49.8l-77 45.4c40.8 68 113.2 113.4 194.8 113.4 59 0 117.8-27.2 158.6-68 86 86.2 226.6 90.8 312.6 4.6 0 0 0 0 4.6-4.6 90.6 86.2 231 86.2 321.8-4.6 13.6-13.6 22.6-27.2 31.8-40.8l-77.2-45.4zM947 739.4c-22.6 40.8-68 68-117.8 68s-95.2-27.2-117.8-68c-18.2-27.2-63.4-27.2-81.6 0-36.2 63.6-122.4 86.2-185.8 49.8-22.6-13.6-36.2-27.2-49.8-49.8-18.2-27.2-63.4-27.2-81.6 0-36.2 63.6-122.4 86.2-185.8 49.8-22.6-13.6-36.2-27.2-49.8-49.8l-77 45.2c63.4 108.8 203.8 140.6 312.6 77.2 13.6-9 31.8-18.2 40.8-31.8 86 86.2 226.6 90.8 312.6 4.6 0 0 0 0 4.6-4.6 90.6 86.2 231 86.2 321.8-4.6 13.6-13.6 22.6-27.2 31.8-40.8l-77.2-45.2z"></path>
<path d="M557.4 263c0 25.074-20.326 45.4-45.4 45.4s-45.4-20.326-45.4-45.4c0-25.074 20.326-45.4 45.4-45.4s45.4 20.326 45.4 45.4z"></path>
<path d="M874.6 353.8c0 25.074-20.326 45.4-45.4 45.4s-45.4-20.326-45.4-45.4c0-25.074 20.326-45.4 45.4-45.4s45.4 20.326 45.4 45.4z"></path>
<path d="M829.2 172.4c0 25.074-20.326 45.4-45.4 45.4s-45.4-20.326-45.4-45.4c0-25.074 20.326-45.4 45.4-45.4s45.4 20.326 45.4 45.4z"></path>
</svg>
