<!-- Generated by IcoMoon.io -->
<svg version="1.1" xmlns="http://www.w3.org/2000/svg" width="1024" height="1024" viewBox="0 0 1024 1024">
<title></title>
<g id="icomoon-ignore">
</g>
<path d="M1024 512c0 101-30 199.4-86.8 284.2-12.2 18.4-37.2 23.2-55.4 11-18.4-12.2-23.2-37.2-11-55.4 47.8-71.8 73.2-154.6 73.2-239.8 0-238.2-193.8-432-432-432s-432 193.8-432 432 193.8 432 432 432c79 0 156.2-21.6 223.4-62.2 19-11.4 43.4-5.4 55 13.4 11.4 18.8 5.4 43.4-13.4 55-79.8 48.2-171.4 73.8-265 73.8-136.8 0-265.4-53.2-362-150-96.8-96.6-150-225.2-150-362s53.2-265.4 150-362c96.6-96.8 225.2-150 362-150s265.4 53.2 362 150c96.8 96.6 150 225.2 150 362zM514 160c-22 0-40 18-40 40v242.8c-24 13.8-40 39.6-40 69.2 0 44.2 35.8 80 80 80 7.2 0 14.2-1 20.8-2.8l106 106c7.8 7.8 18 11.8 28.2 11.8s20.4-4 28.2-11.8c15.6-15.6 15.6-41 0-56.6l-106-106c1.8-6.6 2.8-13.6 2.8-20.8 0-29.6-16-55.4-40-69.2v-242.6c0-22-18-40-40-40z"></path>
</svg>
