<!-- Generated by IcoMoon.io -->
<svg version="1.1" xmlns="http://www.w3.org/2000/svg" width="1024" height="1024" viewBox="0 0 1024 1024">
<title></title>
<g id="icomoon-ignore">
</g>
<path d="M915.8 599.2h-361.2v-172c0-23.6-19-42.6-42.6-42.6s-42.6 19-42.6 42.6v172h-361.2c-59.6 0-108 48.4-108 108v208.8c0 59.6 48.4 108 108 108h808c59.6 0 108-48.4 108-108v-208.8c-0.4-59.6-48.8-108-108.4-108zM938.6 916c0 12.6-10.2 22.6-22.6 22.6h-808c-12.6 0-22.6-10.2-22.6-22.6v-208.8c0-12.6 10.2-22.6 22.6-22.6h808c12.6 0 22.6 10.2 22.6 22.6v208.8zM303.4 171.6c115-115 302-115 417 0 8.4 8.4 19.2 12.6 30 12.6s22-4.2 30-12.6c16.8-16.8 16.8-43.6 0-60.4-148.2-148.2-389.2-148.2-537.6 0-16.8 16.8-16.8 43.6 0 60.4s44 16.6 60.6 0zM383 251c-16.8 16.8-16.8 43.6 0 60.4 8.4 8.4 19.2 12.6 30 12.6s21.8-4.2 30-12.6c37.8-37.8 99.4-37.8 137.2 0 16.8 16.8 43.6 16.8 60.4 0s16.8-43.6 0-60.4c-70.8-71-186.4-71-257.6 0zM540.8 768.8h-57.6c-23.6 0-42.6 19-42.6 42.6s19 42.6 42.6 42.6h57.6c23.6 0 42.6-19 42.6-42.6s-19-42.6-42.6-42.6z"></path>
</svg>
